M48
; DRILL file {KiCad 7.0.9} date Mon Jan 15 11:44:53 2024
; FORMAT={-:-/ absolute / metric / decimal}
; #@! TF.CreationDate,2024-01-15T11:44:53+01:00
; #@! TF.GenerationSoftware,Kicad,Pcbnew,7.0.9
; #@! TF.FileFunction,Plated,1,2,PTH
FMAT,2
METRIC
; #@! TA.AperFunction,Plated,PTH,ViaDrill
T1C0.500
; #@! TA.AperFunction,Plated,PTH,ComponentDrill
T2C1.000
; #@! TA.AperFunction,Plated,PTH,ComponentDrill
T3C1.016
%
G90
G05
T1
X93.98Y-101.6
X106.68Y-88.721
X107.95Y-81.736
X110.49Y-88.721
X111.76Y-81.736
X114.3Y-88.721
X115.57Y-81.736
X116.84Y-113.03
X118.11Y-88.721
X119.38Y-81.736
X121.92Y-88.721
X123.19Y-81.736
X125.73Y-88.721
X127.0Y-81.736
X129.54Y-88.721
X130.81Y-81.736
X133.35Y-88.721
X134.62Y-81.736
X137.16Y-88.721
X137.16Y-113.03
X138.43Y-81.736
X140.97Y-88.721
X142.24Y-81.736
X144.78Y-88.721
X146.05Y-81.736
X148.59Y-88.721
X149.86Y-81.736
X152.4Y-88.721
X153.67Y-81.736
X156.21Y-88.721
X157.48Y-81.736
X160.02Y-88.721
X161.29Y-81.736
X163.83Y-88.721
X165.1Y-81.736
X167.64Y-88.721
X167.64Y-118.11
X168.91Y-81.736
X171.45Y-88.721
X172.72Y-81.736
X175.26Y-88.721
X176.53Y-81.736
T2
X93.98Y-66.04
X93.98Y-68.58
X93.98Y-116.84
X93.98Y-119.38
X96.52Y-66.04
X96.52Y-68.58
X96.52Y-116.84
X96.52Y-119.38
X99.06Y-66.04
X99.06Y-68.58
X99.06Y-116.84
X99.06Y-119.38
X101.6Y-66.04
X101.6Y-68.58
X104.14Y-66.04
X104.14Y-68.58
X106.68Y-66.04
X106.68Y-68.58
X109.22Y-66.04
X109.22Y-68.58
X111.76Y-66.04
X111.76Y-68.58
X114.3Y-66.04
X114.3Y-68.58
X114.3Y-116.84
X114.3Y-119.38
X116.84Y-66.04
X116.84Y-68.58
X116.84Y-116.84
X116.84Y-119.38
X119.38Y-66.04
X119.38Y-68.58
X119.38Y-116.84
X119.38Y-119.38
X121.92Y-66.04
X121.92Y-68.58
X121.92Y-116.84
X121.92Y-119.38
X124.46Y-66.04
X124.46Y-68.58
X124.46Y-116.84
X124.46Y-119.38
X127.0Y-66.04
X127.0Y-68.58
X127.0Y-116.84
X127.0Y-119.38
X129.54Y-66.04
X129.54Y-68.58
X129.54Y-116.84
X129.54Y-119.38
X132.08Y-66.04
X132.08Y-68.58
X134.62Y-66.04
X134.62Y-68.58
X137.16Y-66.04
X137.16Y-68.58
X139.7Y-66.04
X139.7Y-68.58
X139.7Y-116.84
X139.7Y-119.38
X142.24Y-66.04
X142.24Y-68.58
X142.24Y-119.38
X144.78Y-66.04
X144.78Y-68.58
X144.78Y-119.38
X147.32Y-66.04
X147.32Y-68.58
X147.32Y-119.38
X149.86Y-66.04
X149.86Y-68.58
X149.86Y-116.84
X149.86Y-119.38
X152.4Y-66.04
X152.4Y-68.58
X152.4Y-116.84
X152.4Y-119.38
X154.94Y-66.04
X154.94Y-68.58
X154.94Y-116.84
X154.94Y-119.38
T3
X96.52Y-98.881
X99.06Y-98.881
X99.06Y-109.041
X101.6Y-98.881
X101.6Y-109.041
X104.14Y-98.881
X104.14Y-109.041
X105.41Y-74.751
X106.68Y-77.291
X106.68Y-98.881
X106.68Y-109.041
X109.22Y-74.751
X109.22Y-98.881
X109.22Y-109.041
X110.49Y-77.291
X111.76Y-98.881
X111.76Y-109.041
X113.03Y-74.751
X114.3Y-77.291
X114.3Y-98.881
X114.3Y-109.041
X116.84Y-74.751
X116.84Y-98.881
X116.84Y-109.041
X118.11Y-77.291
X119.38Y-98.881
X120.65Y-74.751
X121.92Y-77.291
X121.92Y-98.881
X124.46Y-74.751
X125.73Y-77.291
X125.73Y-98.881
X128.27Y-74.751
X128.27Y-98.881
X128.27Y-109.041
X129.54Y-77.291
X130.81Y-98.881
X130.81Y-109.041
X132.08Y-74.751
X133.35Y-77.291
X133.35Y-98.881
X133.35Y-109.041
X135.89Y-74.751
X135.89Y-98.881
X135.89Y-109.041
X137.16Y-77.291
X138.43Y-98.881
X138.43Y-109.041
X139.7Y-74.751
X140.97Y-77.291
X140.97Y-98.881
X140.97Y-109.041
X143.51Y-74.751
X143.51Y-98.881
X143.51Y-109.041
X144.78Y-77.291
X146.05Y-98.881
X146.05Y-109.041
X147.32Y-74.751
X148.59Y-77.291
X148.59Y-98.881
X151.13Y-74.751
X151.13Y-98.881
X152.4Y-77.291
X154.94Y-74.751
X154.94Y-98.881
X156.21Y-77.291
X157.48Y-98.881
X157.48Y-109.041
X158.75Y-74.751
X160.02Y-77.291
X160.02Y-98.881
X160.02Y-109.041
X162.56Y-74.751
X162.56Y-98.881
X162.56Y-109.041
X163.83Y-77.291
X165.1Y-98.881
X165.1Y-109.041
X166.37Y-74.751
X167.64Y-77.291
X167.64Y-98.881
X167.64Y-109.041
X170.18Y-74.751
X170.18Y-98.881
X170.18Y-109.041
X171.45Y-77.291
X172.72Y-98.881
X172.72Y-109.041
X173.99Y-74.751
X175.26Y-77.291
X175.26Y-98.881
X175.26Y-109.041
X177.8Y-98.881
X180.34Y-98.881
T0
M30
