%TF.GenerationSoftware,KiCad,Pcbnew,7.0.9*%
%TF.CreationDate,2024-01-15T11:44:11+01:00*%
%TF.ProjectId,pltka_inz,706c746b-615f-4696-9e7a-2e6b69636164,rev?*%
%TF.SameCoordinates,Original*%
%TF.FileFunction,Legend,Top*%
%TF.FilePolarity,Positive*%
%FSLAX46Y46*%
G04 Gerber Fmt 4.6, Leading zero omitted, Abs format (unit mm)*
G04 Created by KiCad (PCBNEW 7.0.9) date 2024-01-15 11:44:11*
%MOMM*%
%LPD*%
G01*
G04 APERTURE LIST*
%ADD10C,0.150000*%
%ADD11C,0.125000*%
%ADD12C,0.100000*%
%ADD13C,0.120000*%
G04 APERTURE END LIST*
D10*
X171450000Y-96087250D02*
X173990000Y-96087250D01*
X173990000Y-100151250D01*
X171450000Y-100151250D01*
X171450000Y-96087250D01*
X153670000Y-73481250D02*
X157480000Y-73481250D01*
X157480000Y-79831250D01*
X153670000Y-79831250D01*
X153670000Y-73481250D01*
X120650000Y-96087250D02*
X123190000Y-96087250D01*
X123190000Y-100151250D01*
X120650000Y-100151250D01*
X120650000Y-96087250D01*
X127000000Y-73481250D02*
X130810000Y-73481250D01*
X130810000Y-79831250D01*
X127000000Y-79831250D01*
X127000000Y-73481250D01*
X173990000Y-96087250D02*
X176530000Y-96087250D01*
X176530000Y-100151250D01*
X173990000Y-100151250D01*
X173990000Y-96087250D01*
X157480000Y-73481250D02*
X161290000Y-73481250D01*
X161290000Y-79831250D01*
X157480000Y-79831250D01*
X157480000Y-73481250D01*
X115570000Y-96087250D02*
X118110000Y-96087250D01*
X118110000Y-100151250D01*
X115570000Y-100151250D01*
X115570000Y-96087250D01*
X168910000Y-73481250D02*
X172720000Y-73481250D01*
X172720000Y-79831250D01*
X168910000Y-79831250D01*
X168910000Y-73481250D01*
X118110000Y-96087250D02*
X120650000Y-96087250D01*
X120650000Y-100151250D01*
X118110000Y-100151250D01*
X118110000Y-96087250D01*
X138430000Y-73481250D02*
X142240000Y-73481250D01*
X142240000Y-79831250D01*
X138430000Y-79831250D01*
X138430000Y-73481250D01*
X142240000Y-96087250D02*
X144780000Y-96087250D01*
X144780000Y-100151250D01*
X142240000Y-100151250D01*
X142240000Y-96087250D01*
X146050000Y-73481250D02*
X149860000Y-73481250D01*
X149860000Y-79831250D01*
X146050000Y-79831250D01*
X146050000Y-73481250D01*
X113030000Y-96087250D02*
X115570000Y-96087250D01*
X115570000Y-100151250D01*
X113030000Y-100151250D01*
X113030000Y-96087250D01*
X176530000Y-96087250D02*
X179070000Y-96087250D01*
X179070000Y-100151250D01*
X176530000Y-100151250D01*
X176530000Y-96087250D01*
X165100000Y-73481250D02*
X168910000Y-73481250D01*
X168910000Y-79831250D01*
X165100000Y-79831250D01*
X165100000Y-73481250D01*
X142240000Y-73481250D02*
X146050000Y-73481250D01*
X146050000Y-79831250D01*
X142240000Y-79831250D01*
X142240000Y-73481250D01*
X149860000Y-73481250D02*
X153670000Y-73481250D01*
X153670000Y-79831250D01*
X149860000Y-79831250D01*
X149860000Y-73481250D01*
X137160000Y-96087250D02*
X139700000Y-96087250D01*
X139700000Y-100151250D01*
X137160000Y-100151250D01*
X137160000Y-96087250D01*
X161290000Y-73481250D02*
X165100000Y-73481250D01*
X165100000Y-79831250D01*
X161290000Y-79831250D01*
X161290000Y-73481250D01*
X166370000Y-96087250D02*
X168910000Y-96087250D01*
X168910000Y-100151250D01*
X166370000Y-100151250D01*
X166370000Y-96087250D01*
X147320000Y-96087250D02*
X149860000Y-96087250D01*
X149860000Y-100151250D01*
X147320000Y-100151250D01*
X147320000Y-96087250D01*
X115570000Y-73481250D02*
X119380000Y-73481250D01*
X119380000Y-79831250D01*
X115570000Y-79831250D01*
X115570000Y-73481250D01*
X105410000Y-96087250D02*
X107950000Y-96087250D01*
X107950000Y-100151250D01*
X105410000Y-100151250D01*
X105410000Y-96087250D01*
X134620000Y-73481250D02*
X138430000Y-73481250D01*
X138430000Y-79831250D01*
X134620000Y-79831250D01*
X134620000Y-73481250D01*
X130810000Y-73481250D02*
X134620000Y-73481250D01*
X134620000Y-79831250D01*
X130810000Y-79831250D01*
X130810000Y-73481250D01*
X111760000Y-73481250D02*
X115570000Y-73481250D01*
X115570000Y-79831250D01*
X111760000Y-79831250D01*
X111760000Y-73481250D01*
X134620000Y-96087250D02*
X137160000Y-96087250D01*
X137160000Y-100151250D01*
X134620000Y-100151250D01*
X134620000Y-96087250D01*
X107950000Y-96087250D02*
X110490000Y-96087250D01*
X110490000Y-100151250D01*
X107950000Y-100151250D01*
X107950000Y-96087250D01*
X168910000Y-96087250D02*
X171450000Y-96087250D01*
X171450000Y-100151250D01*
X168910000Y-100151250D01*
X168910000Y-96087250D01*
X104140000Y-73481250D02*
X107950000Y-73481250D01*
X107950000Y-79831250D01*
X104140000Y-79831250D01*
X104140000Y-73481250D01*
X139700000Y-96087250D02*
X142240000Y-96087250D01*
X142240000Y-100151250D01*
X139700000Y-100151250D01*
X139700000Y-96087250D01*
X107950000Y-73481250D02*
X111760000Y-73481250D01*
X111760000Y-79831250D01*
X107950000Y-79831250D01*
X107950000Y-73481250D01*
X172720000Y-73481250D02*
X176530000Y-73481250D01*
X176530000Y-79831250D01*
X172720000Y-79831250D01*
X172720000Y-73481250D01*
X163830000Y-96087250D02*
X166370000Y-96087250D01*
X166370000Y-100151250D01*
X163830000Y-100151250D01*
X163830000Y-96087250D01*
X123190000Y-73481250D02*
X127000000Y-73481250D01*
X127000000Y-79831250D01*
X123190000Y-79831250D01*
X123190000Y-73481250D01*
X144780000Y-96087250D02*
X147320000Y-96087250D01*
X147320000Y-100151250D01*
X144780000Y-100151250D01*
X144780000Y-96087250D01*
X110490000Y-96087250D02*
X113030000Y-96087250D01*
X113030000Y-100151250D01*
X110490000Y-100151250D01*
X110490000Y-96087250D01*
X119380000Y-73481250D02*
X123190000Y-73481250D01*
X123190000Y-79831250D01*
X119380000Y-79831250D01*
X119380000Y-73481250D01*
X142862380Y-96431069D02*
X143357618Y-96431069D01*
X143357618Y-96431069D02*
X143090952Y-96812021D01*
X143090952Y-96812021D02*
X143205237Y-96812021D01*
X143205237Y-96812021D02*
X143281428Y-96859640D01*
X143281428Y-96859640D02*
X143319523Y-96907259D01*
X143319523Y-96907259D02*
X143357618Y-97002497D01*
X143357618Y-97002497D02*
X143357618Y-97240592D01*
X143357618Y-97240592D02*
X143319523Y-97335830D01*
X143319523Y-97335830D02*
X143281428Y-97383450D01*
X143281428Y-97383450D02*
X143205237Y-97431069D01*
X143205237Y-97431069D02*
X142976666Y-97431069D01*
X142976666Y-97431069D02*
X142900475Y-97383450D01*
X142900475Y-97383450D02*
X142862380Y-97335830D01*
X144119523Y-97431069D02*
X143662380Y-97431069D01*
X143890952Y-97431069D02*
X143890952Y-96431069D01*
X143890952Y-96431069D02*
X143814761Y-96573926D01*
X143814761Y-96573926D02*
X143738571Y-96669164D01*
X143738571Y-96669164D02*
X143662380Y-96716783D01*
D11*
X110945283Y-111413833D02*
X110945283Y-110713833D01*
X110945283Y-110713833D02*
X111135759Y-110713833D01*
X111135759Y-110713833D02*
X111183378Y-110747166D01*
X111183378Y-110747166D02*
X111207188Y-110780500D01*
X111207188Y-110780500D02*
X111230997Y-110847166D01*
X111230997Y-110847166D02*
X111230997Y-110947166D01*
X111230997Y-110947166D02*
X111207188Y-111013833D01*
X111207188Y-111013833D02*
X111183378Y-111047166D01*
X111183378Y-111047166D02*
X111135759Y-111080500D01*
X111135759Y-111080500D02*
X110945283Y-111080500D01*
X111445283Y-111047166D02*
X111611950Y-111047166D01*
X111683378Y-111413833D02*
X111445283Y-111413833D01*
X111445283Y-111413833D02*
X111445283Y-110713833D01*
X111445283Y-110713833D02*
X111683378Y-110713833D01*
X112159569Y-111413833D02*
X111873855Y-111413833D01*
X112016712Y-111413833D02*
X112016712Y-110713833D01*
X112016712Y-110713833D02*
X111969093Y-110813833D01*
X111969093Y-110813833D02*
X111921474Y-110880500D01*
X111921474Y-110880500D02*
X111873855Y-110913833D01*
X112588140Y-110947166D02*
X112588140Y-111413833D01*
X112469092Y-110680500D02*
X112350045Y-111180500D01*
X112350045Y-111180500D02*
X112659568Y-111180500D01*
D10*
X173390112Y-78701069D02*
X173009160Y-78701069D01*
X173009160Y-78701069D02*
X172971064Y-79177259D01*
X172971064Y-79177259D02*
X173009160Y-79129640D01*
X173009160Y-79129640D02*
X173085350Y-79082021D01*
X173085350Y-79082021D02*
X173275826Y-79082021D01*
X173275826Y-79082021D02*
X173352017Y-79129640D01*
X173352017Y-79129640D02*
X173390112Y-79177259D01*
X173390112Y-79177259D02*
X173428207Y-79272497D01*
X173428207Y-79272497D02*
X173428207Y-79510592D01*
X173428207Y-79510592D02*
X173390112Y-79605830D01*
X173390112Y-79605830D02*
X173352017Y-79653450D01*
X173352017Y-79653450D02*
X173275826Y-79701069D01*
X173275826Y-79701069D02*
X173085350Y-79701069D01*
X173085350Y-79701069D02*
X173009160Y-79653450D01*
X173009160Y-79653450D02*
X172971064Y-79605830D01*
X173694874Y-78701069D02*
X174190112Y-78701069D01*
X174190112Y-78701069D02*
X173923446Y-79082021D01*
X173923446Y-79082021D02*
X174037731Y-79082021D01*
X174037731Y-79082021D02*
X174113922Y-79129640D01*
X174113922Y-79129640D02*
X174152017Y-79177259D01*
X174152017Y-79177259D02*
X174190112Y-79272497D01*
X174190112Y-79272497D02*
X174190112Y-79510592D01*
X174190112Y-79510592D02*
X174152017Y-79605830D01*
X174152017Y-79605830D02*
X174113922Y-79653450D01*
X174113922Y-79653450D02*
X174037731Y-79701069D01*
X174037731Y-79701069D02*
X173809160Y-79701069D01*
X173809160Y-79701069D02*
X173732969Y-79653450D01*
X173732969Y-79653450D02*
X173694874Y-79605830D01*
X129959350Y-110712533D02*
X130192684Y-111412533D01*
X130192684Y-111412533D02*
X130426017Y-110712533D01*
X131059350Y-111345866D02*
X131026017Y-111379200D01*
X131026017Y-111379200D02*
X130926017Y-111412533D01*
X130926017Y-111412533D02*
X130859350Y-111412533D01*
X130859350Y-111412533D02*
X130759350Y-111379200D01*
X130759350Y-111379200D02*
X130692684Y-111312533D01*
X130692684Y-111312533D02*
X130659350Y-111245866D01*
X130659350Y-111245866D02*
X130626017Y-111112533D01*
X130626017Y-111112533D02*
X130626017Y-111012533D01*
X130626017Y-111012533D02*
X130659350Y-110879200D01*
X130659350Y-110879200D02*
X130692684Y-110812533D01*
X130692684Y-110812533D02*
X130759350Y-110745866D01*
X130759350Y-110745866D02*
X130859350Y-110712533D01*
X130859350Y-110712533D02*
X130926017Y-110712533D01*
X130926017Y-110712533D02*
X131026017Y-110745866D01*
X131026017Y-110745866D02*
X131059350Y-110779200D01*
X131759350Y-111345866D02*
X131726017Y-111379200D01*
X131726017Y-111379200D02*
X131626017Y-111412533D01*
X131626017Y-111412533D02*
X131559350Y-111412533D01*
X131559350Y-111412533D02*
X131459350Y-111379200D01*
X131459350Y-111379200D02*
X131392684Y-111312533D01*
X131392684Y-111312533D02*
X131359350Y-111245866D01*
X131359350Y-111245866D02*
X131326017Y-111112533D01*
X131326017Y-111112533D02*
X131326017Y-111012533D01*
X131326017Y-111012533D02*
X131359350Y-110879200D01*
X131359350Y-110879200D02*
X131392684Y-110812533D01*
X131392684Y-110812533D02*
X131459350Y-110745866D01*
X131459350Y-110745866D02*
X131559350Y-110712533D01*
X131559350Y-110712533D02*
X131626017Y-110712533D01*
X131626017Y-110712533D02*
X131726017Y-110745866D01*
X131726017Y-110745866D02*
X131759350Y-110779200D01*
X105929350Y-111412533D02*
X105929350Y-110712533D01*
X105929350Y-110712533D02*
X106196017Y-110712533D01*
X106196017Y-110712533D02*
X106262684Y-110745866D01*
X106262684Y-110745866D02*
X106296017Y-110779200D01*
X106296017Y-110779200D02*
X106329350Y-110845866D01*
X106329350Y-110845866D02*
X106329350Y-110945866D01*
X106329350Y-110945866D02*
X106296017Y-111012533D01*
X106296017Y-111012533D02*
X106262684Y-111045866D01*
X106262684Y-111045866D02*
X106196017Y-111079200D01*
X106196017Y-111079200D02*
X105929350Y-111079200D01*
X106862684Y-111045866D02*
X106962684Y-111079200D01*
X106962684Y-111079200D02*
X106996017Y-111112533D01*
X106996017Y-111112533D02*
X107029350Y-111179200D01*
X107029350Y-111179200D02*
X107029350Y-111279200D01*
X107029350Y-111279200D02*
X106996017Y-111345866D01*
X106996017Y-111345866D02*
X106962684Y-111379200D01*
X106962684Y-111379200D02*
X106896017Y-111412533D01*
X106896017Y-111412533D02*
X106629350Y-111412533D01*
X106629350Y-111412533D02*
X106629350Y-110712533D01*
X106629350Y-110712533D02*
X106862684Y-110712533D01*
X106862684Y-110712533D02*
X106929350Y-110745866D01*
X106929350Y-110745866D02*
X106962684Y-110779200D01*
X106962684Y-110779200D02*
X106996017Y-110845866D01*
X106996017Y-110845866D02*
X106996017Y-110912533D01*
X106996017Y-110912533D02*
X106962684Y-110979200D01*
X106962684Y-110979200D02*
X106929350Y-111012533D01*
X106929350Y-111012533D02*
X106862684Y-111045866D01*
X106862684Y-111045866D02*
X106629350Y-111045866D01*
X107462684Y-110712533D02*
X107529350Y-110712533D01*
X107529350Y-110712533D02*
X107596017Y-110745866D01*
X107596017Y-110745866D02*
X107629350Y-110779200D01*
X107629350Y-110779200D02*
X107662684Y-110845866D01*
X107662684Y-110845866D02*
X107696017Y-110979200D01*
X107696017Y-110979200D02*
X107696017Y-111145866D01*
X107696017Y-111145866D02*
X107662684Y-111279200D01*
X107662684Y-111279200D02*
X107629350Y-111345866D01*
X107629350Y-111345866D02*
X107596017Y-111379200D01*
X107596017Y-111379200D02*
X107529350Y-111412533D01*
X107529350Y-111412533D02*
X107462684Y-111412533D01*
X107462684Y-111412533D02*
X107396017Y-111379200D01*
X107396017Y-111379200D02*
X107362684Y-111345866D01*
X107362684Y-111345866D02*
X107329350Y-111279200D01*
X107329350Y-111279200D02*
X107296017Y-111145866D01*
X107296017Y-111145866D02*
X107296017Y-110979200D01*
X107296017Y-110979200D02*
X107329350Y-110845866D01*
X107329350Y-110845866D02*
X107362684Y-110779200D01*
X107362684Y-110779200D02*
X107396017Y-110745866D01*
X107396017Y-110745866D02*
X107462684Y-110712533D01*
X131061064Y-78796307D02*
X131099160Y-78748688D01*
X131099160Y-78748688D02*
X131175350Y-78701069D01*
X131175350Y-78701069D02*
X131365826Y-78701069D01*
X131365826Y-78701069D02*
X131442017Y-78748688D01*
X131442017Y-78748688D02*
X131480112Y-78796307D01*
X131480112Y-78796307D02*
X131518207Y-78891545D01*
X131518207Y-78891545D02*
X131518207Y-78986783D01*
X131518207Y-78986783D02*
X131480112Y-79129640D01*
X131480112Y-79129640D02*
X131022969Y-79701069D01*
X131022969Y-79701069D02*
X131518207Y-79701069D01*
X132280112Y-79701069D02*
X131822969Y-79701069D01*
X132051541Y-79701069D02*
X132051541Y-78701069D01*
X132051541Y-78701069D02*
X131975350Y-78843926D01*
X131975350Y-78843926D02*
X131899160Y-78939164D01*
X131899160Y-78939164D02*
X131822969Y-78986783D01*
X111607618Y-97431069D02*
X111150475Y-97431069D01*
X111379047Y-97431069D02*
X111379047Y-96431069D01*
X111379047Y-96431069D02*
X111302856Y-96573926D01*
X111302856Y-96573926D02*
X111226666Y-96669164D01*
X111226666Y-96669164D02*
X111150475Y-96716783D01*
X111874285Y-96431069D02*
X112369523Y-96431069D01*
X112369523Y-96431069D02*
X112102857Y-96812021D01*
X112102857Y-96812021D02*
X112217142Y-96812021D01*
X112217142Y-96812021D02*
X112293333Y-96859640D01*
X112293333Y-96859640D02*
X112331428Y-96907259D01*
X112331428Y-96907259D02*
X112369523Y-97002497D01*
X112369523Y-97002497D02*
X112369523Y-97240592D01*
X112369523Y-97240592D02*
X112331428Y-97335830D01*
X112331428Y-97335830D02*
X112293333Y-97383450D01*
X112293333Y-97383450D02*
X112217142Y-97431069D01*
X112217142Y-97431069D02*
X111988571Y-97431069D01*
X111988571Y-97431069D02*
X111912380Y-97383450D01*
X111912380Y-97383450D02*
X111874285Y-97335830D01*
X100749350Y-110712533D02*
X100982684Y-111412533D01*
X100982684Y-111412533D02*
X101216017Y-110712533D01*
X101849350Y-111345866D02*
X101816017Y-111379200D01*
X101816017Y-111379200D02*
X101716017Y-111412533D01*
X101716017Y-111412533D02*
X101649350Y-111412533D01*
X101649350Y-111412533D02*
X101549350Y-111379200D01*
X101549350Y-111379200D02*
X101482684Y-111312533D01*
X101482684Y-111312533D02*
X101449350Y-111245866D01*
X101449350Y-111245866D02*
X101416017Y-111112533D01*
X101416017Y-111112533D02*
X101416017Y-111012533D01*
X101416017Y-111012533D02*
X101449350Y-110879200D01*
X101449350Y-110879200D02*
X101482684Y-110812533D01*
X101482684Y-110812533D02*
X101549350Y-110745866D01*
X101549350Y-110745866D02*
X101649350Y-110712533D01*
X101649350Y-110712533D02*
X101716017Y-110712533D01*
X101716017Y-110712533D02*
X101816017Y-110745866D01*
X101816017Y-110745866D02*
X101849350Y-110779200D01*
X102549350Y-111345866D02*
X102516017Y-111379200D01*
X102516017Y-111379200D02*
X102416017Y-111412533D01*
X102416017Y-111412533D02*
X102349350Y-111412533D01*
X102349350Y-111412533D02*
X102249350Y-111379200D01*
X102249350Y-111379200D02*
X102182684Y-111312533D01*
X102182684Y-111312533D02*
X102149350Y-111245866D01*
X102149350Y-111245866D02*
X102116017Y-111112533D01*
X102116017Y-111112533D02*
X102116017Y-111012533D01*
X102116017Y-111012533D02*
X102149350Y-110879200D01*
X102149350Y-110879200D02*
X102182684Y-110812533D01*
X102182684Y-110812533D02*
X102249350Y-110745866D01*
X102249350Y-110745866D02*
X102349350Y-110712533D01*
X102349350Y-110712533D02*
X102416017Y-110712533D01*
X102416017Y-110712533D02*
X102516017Y-110745866D01*
X102516017Y-110745866D02*
X102549350Y-110779200D01*
D11*
X113485283Y-111413833D02*
X113485283Y-110713833D01*
X113485283Y-110713833D02*
X113675759Y-110713833D01*
X113675759Y-110713833D02*
X113723378Y-110747166D01*
X113723378Y-110747166D02*
X113747188Y-110780500D01*
X113747188Y-110780500D02*
X113770997Y-110847166D01*
X113770997Y-110847166D02*
X113770997Y-110947166D01*
X113770997Y-110947166D02*
X113747188Y-111013833D01*
X113747188Y-111013833D02*
X113723378Y-111047166D01*
X113723378Y-111047166D02*
X113675759Y-111080500D01*
X113675759Y-111080500D02*
X113485283Y-111080500D01*
X113985283Y-111047166D02*
X114151950Y-111047166D01*
X114223378Y-111413833D02*
X113985283Y-111413833D01*
X113985283Y-111413833D02*
X113985283Y-110713833D01*
X113985283Y-110713833D02*
X114223378Y-110713833D01*
X114699569Y-111413833D02*
X114413855Y-111413833D01*
X114556712Y-111413833D02*
X114556712Y-110713833D01*
X114556712Y-110713833D02*
X114509093Y-110813833D01*
X114509093Y-110813833D02*
X114461474Y-110880500D01*
X114461474Y-110880500D02*
X114413855Y-110913833D01*
X115151949Y-110713833D02*
X114913854Y-110713833D01*
X114913854Y-110713833D02*
X114890045Y-111047166D01*
X114890045Y-111047166D02*
X114913854Y-111013833D01*
X114913854Y-111013833D02*
X114961473Y-110980500D01*
X114961473Y-110980500D02*
X115080521Y-110980500D01*
X115080521Y-110980500D02*
X115128140Y-111013833D01*
X115128140Y-111013833D02*
X115151949Y-111047166D01*
X115151949Y-111047166D02*
X115175759Y-111113833D01*
X115175759Y-111113833D02*
X115175759Y-111280500D01*
X115175759Y-111280500D02*
X115151949Y-111347166D01*
X115151949Y-111347166D02*
X115128140Y-111380500D01*
X115128140Y-111380500D02*
X115080521Y-111413833D01*
X115080521Y-111413833D02*
X114961473Y-111413833D01*
X114961473Y-111413833D02*
X114913854Y-111380500D01*
X114913854Y-111380500D02*
X114890045Y-111347166D01*
D10*
X164349350Y-111412533D02*
X164349350Y-110712533D01*
X164349350Y-110712533D02*
X164616017Y-110712533D01*
X164616017Y-110712533D02*
X164682684Y-110745866D01*
X164682684Y-110745866D02*
X164716017Y-110779200D01*
X164716017Y-110779200D02*
X164749350Y-110845866D01*
X164749350Y-110845866D02*
X164749350Y-110945866D01*
X164749350Y-110945866D02*
X164716017Y-111012533D01*
X164716017Y-111012533D02*
X164682684Y-111045866D01*
X164682684Y-111045866D02*
X164616017Y-111079200D01*
X164616017Y-111079200D02*
X164349350Y-111079200D01*
X165449350Y-111345866D02*
X165416017Y-111379200D01*
X165416017Y-111379200D02*
X165316017Y-111412533D01*
X165316017Y-111412533D02*
X165249350Y-111412533D01*
X165249350Y-111412533D02*
X165149350Y-111379200D01*
X165149350Y-111379200D02*
X165082684Y-111312533D01*
X165082684Y-111312533D02*
X165049350Y-111245866D01*
X165049350Y-111245866D02*
X165016017Y-111112533D01*
X165016017Y-111112533D02*
X165016017Y-111012533D01*
X165016017Y-111012533D02*
X165049350Y-110879200D01*
X165049350Y-110879200D02*
X165082684Y-110812533D01*
X165082684Y-110812533D02*
X165149350Y-110745866D01*
X165149350Y-110745866D02*
X165249350Y-110712533D01*
X165249350Y-110712533D02*
X165316017Y-110712533D01*
X165316017Y-110712533D02*
X165416017Y-110745866D01*
X165416017Y-110745866D02*
X165449350Y-110779200D01*
X166116017Y-111412533D02*
X165716017Y-111412533D01*
X165916017Y-111412533D02*
X165916017Y-110712533D01*
X165916017Y-110712533D02*
X165849350Y-110812533D01*
X165849350Y-110812533D02*
X165782684Y-110879200D01*
X165782684Y-110879200D02*
X165716017Y-110912533D01*
D11*
X169412902Y-111413833D02*
X169412902Y-110713833D01*
X169412902Y-110713833D02*
X169679569Y-110713833D01*
X169679569Y-110713833D02*
X169746236Y-110747166D01*
X169746236Y-110747166D02*
X169779569Y-110780500D01*
X169779569Y-110780500D02*
X169812902Y-110847166D01*
X169812902Y-110847166D02*
X169812902Y-110947166D01*
X169812902Y-110947166D02*
X169779569Y-111013833D01*
X169779569Y-111013833D02*
X169746236Y-111047166D01*
X169746236Y-111047166D02*
X169679569Y-111080500D01*
X169679569Y-111080500D02*
X169412902Y-111080500D01*
X170112902Y-111047166D02*
X170346236Y-111047166D01*
X170446236Y-111413833D02*
X170112902Y-111413833D01*
X170112902Y-111413833D02*
X170112902Y-110713833D01*
X170112902Y-110713833D02*
X170446236Y-110713833D01*
X170846235Y-111013833D02*
X170779569Y-110980500D01*
X170779569Y-110980500D02*
X170746235Y-110947166D01*
X170746235Y-110947166D02*
X170712902Y-110880500D01*
X170712902Y-110880500D02*
X170712902Y-110847166D01*
X170712902Y-110847166D02*
X170746235Y-110780500D01*
X170746235Y-110780500D02*
X170779569Y-110747166D01*
X170779569Y-110747166D02*
X170846235Y-110713833D01*
X170846235Y-110713833D02*
X170979569Y-110713833D01*
X170979569Y-110713833D02*
X171046235Y-110747166D01*
X171046235Y-110747166D02*
X171079569Y-110780500D01*
X171079569Y-110780500D02*
X171112902Y-110847166D01*
X171112902Y-110847166D02*
X171112902Y-110880500D01*
X171112902Y-110880500D02*
X171079569Y-110947166D01*
X171079569Y-110947166D02*
X171046235Y-110980500D01*
X171046235Y-110980500D02*
X170979569Y-111013833D01*
X170979569Y-111013833D02*
X170846235Y-111013833D01*
X170846235Y-111013833D02*
X170779569Y-111047166D01*
X170779569Y-111047166D02*
X170746235Y-111080500D01*
X170746235Y-111080500D02*
X170712902Y-111147166D01*
X170712902Y-111147166D02*
X170712902Y-111280500D01*
X170712902Y-111280500D02*
X170746235Y-111347166D01*
X170746235Y-111347166D02*
X170779569Y-111380500D01*
X170779569Y-111380500D02*
X170846235Y-111413833D01*
X170846235Y-111413833D02*
X170979569Y-111413833D01*
X170979569Y-111413833D02*
X171046235Y-111380500D01*
X171046235Y-111380500D02*
X171079569Y-111347166D01*
X171079569Y-111347166D02*
X171112902Y-111280500D01*
X171112902Y-111280500D02*
X171112902Y-111147166D01*
X171112902Y-111147166D02*
X171079569Y-111080500D01*
X171079569Y-111080500D02*
X171046235Y-111047166D01*
X171046235Y-111047166D02*
X170979569Y-111013833D01*
X171952902Y-111413833D02*
X171952902Y-110713833D01*
X171952902Y-110713833D02*
X172219569Y-110713833D01*
X172219569Y-110713833D02*
X172286236Y-110747166D01*
X172286236Y-110747166D02*
X172319569Y-110780500D01*
X172319569Y-110780500D02*
X172352902Y-110847166D01*
X172352902Y-110847166D02*
X172352902Y-110947166D01*
X172352902Y-110947166D02*
X172319569Y-111013833D01*
X172319569Y-111013833D02*
X172286236Y-111047166D01*
X172286236Y-111047166D02*
X172219569Y-111080500D01*
X172219569Y-111080500D02*
X171952902Y-111080500D01*
X172652902Y-111047166D02*
X172886236Y-111047166D01*
X172986236Y-111413833D02*
X172652902Y-111413833D01*
X172652902Y-111413833D02*
X172652902Y-110713833D01*
X172652902Y-110713833D02*
X172986236Y-110713833D01*
X173319569Y-111413833D02*
X173452902Y-111413833D01*
X173452902Y-111413833D02*
X173519569Y-111380500D01*
X173519569Y-111380500D02*
X173552902Y-111347166D01*
X173552902Y-111347166D02*
X173619569Y-111247166D01*
X173619569Y-111247166D02*
X173652902Y-111113833D01*
X173652902Y-111113833D02*
X173652902Y-110847166D01*
X173652902Y-110847166D02*
X173619569Y-110780500D01*
X173619569Y-110780500D02*
X173586235Y-110747166D01*
X173586235Y-110747166D02*
X173519569Y-110713833D01*
X173519569Y-110713833D02*
X173386235Y-110713833D01*
X173386235Y-110713833D02*
X173319569Y-110747166D01*
X173319569Y-110747166D02*
X173286235Y-110780500D01*
X173286235Y-110780500D02*
X173252902Y-110847166D01*
X173252902Y-110847166D02*
X173252902Y-111013833D01*
X173252902Y-111013833D02*
X173286235Y-111080500D01*
X173286235Y-111080500D02*
X173319569Y-111113833D01*
X173319569Y-111113833D02*
X173386235Y-111147166D01*
X173386235Y-111147166D02*
X173519569Y-111147166D01*
X173519569Y-111147166D02*
X173586235Y-111113833D01*
X173586235Y-111113833D02*
X173619569Y-111080500D01*
X173619569Y-111080500D02*
X173652902Y-111013833D01*
D10*
X158112017Y-79034402D02*
X158112017Y-79701069D01*
X157921541Y-78653450D02*
X157731064Y-79367735D01*
X157731064Y-79367735D02*
X158226303Y-79367735D01*
X158492969Y-78796307D02*
X158531065Y-78748688D01*
X158531065Y-78748688D02*
X158607255Y-78701069D01*
X158607255Y-78701069D02*
X158797731Y-78701069D01*
X158797731Y-78701069D02*
X158873922Y-78748688D01*
X158873922Y-78748688D02*
X158912017Y-78796307D01*
X158912017Y-78796307D02*
X158950112Y-78891545D01*
X158950112Y-78891545D02*
X158950112Y-78986783D01*
X158950112Y-78986783D02*
X158912017Y-79129640D01*
X158912017Y-79129640D02*
X158454874Y-79701069D01*
X158454874Y-79701069D02*
X158950112Y-79701069D01*
X169580112Y-78701069D02*
X169199160Y-78701069D01*
X169199160Y-78701069D02*
X169161064Y-79177259D01*
X169161064Y-79177259D02*
X169199160Y-79129640D01*
X169199160Y-79129640D02*
X169275350Y-79082021D01*
X169275350Y-79082021D02*
X169465826Y-79082021D01*
X169465826Y-79082021D02*
X169542017Y-79129640D01*
X169542017Y-79129640D02*
X169580112Y-79177259D01*
X169580112Y-79177259D02*
X169618207Y-79272497D01*
X169618207Y-79272497D02*
X169618207Y-79510592D01*
X169618207Y-79510592D02*
X169580112Y-79605830D01*
X169580112Y-79605830D02*
X169542017Y-79653450D01*
X169542017Y-79653450D02*
X169465826Y-79701069D01*
X169465826Y-79701069D02*
X169275350Y-79701069D01*
X169275350Y-79701069D02*
X169199160Y-79653450D01*
X169199160Y-79653450D02*
X169161064Y-79605830D01*
X169922969Y-78796307D02*
X169961065Y-78748688D01*
X169961065Y-78748688D02*
X170037255Y-78701069D01*
X170037255Y-78701069D02*
X170227731Y-78701069D01*
X170227731Y-78701069D02*
X170303922Y-78748688D01*
X170303922Y-78748688D02*
X170342017Y-78796307D01*
X170342017Y-78796307D02*
X170380112Y-78891545D01*
X170380112Y-78891545D02*
X170380112Y-78986783D01*
X170380112Y-78986783D02*
X170342017Y-79129640D01*
X170342017Y-79129640D02*
X169884874Y-79701069D01*
X169884874Y-79701069D02*
X170380112Y-79701069D01*
X159169350Y-110712533D02*
X159402684Y-111412533D01*
X159402684Y-111412533D02*
X159636017Y-110712533D01*
X160269350Y-111345866D02*
X160236017Y-111379200D01*
X160236017Y-111379200D02*
X160136017Y-111412533D01*
X160136017Y-111412533D02*
X160069350Y-111412533D01*
X160069350Y-111412533D02*
X159969350Y-111379200D01*
X159969350Y-111379200D02*
X159902684Y-111312533D01*
X159902684Y-111312533D02*
X159869350Y-111245866D01*
X159869350Y-111245866D02*
X159836017Y-111112533D01*
X159836017Y-111112533D02*
X159836017Y-111012533D01*
X159836017Y-111012533D02*
X159869350Y-110879200D01*
X159869350Y-110879200D02*
X159902684Y-110812533D01*
X159902684Y-110812533D02*
X159969350Y-110745866D01*
X159969350Y-110745866D02*
X160069350Y-110712533D01*
X160069350Y-110712533D02*
X160136017Y-110712533D01*
X160136017Y-110712533D02*
X160236017Y-110745866D01*
X160236017Y-110745866D02*
X160269350Y-110779200D01*
X160969350Y-111345866D02*
X160936017Y-111379200D01*
X160936017Y-111379200D02*
X160836017Y-111412533D01*
X160836017Y-111412533D02*
X160769350Y-111412533D01*
X160769350Y-111412533D02*
X160669350Y-111379200D01*
X160669350Y-111379200D02*
X160602684Y-111312533D01*
X160602684Y-111312533D02*
X160569350Y-111245866D01*
X160569350Y-111245866D02*
X160536017Y-111112533D01*
X160536017Y-111112533D02*
X160536017Y-111012533D01*
X160536017Y-111012533D02*
X160569350Y-110879200D01*
X160569350Y-110879200D02*
X160602684Y-110812533D01*
X160602684Y-110812533D02*
X160669350Y-110745866D01*
X160669350Y-110745866D02*
X160769350Y-110712533D01*
X160769350Y-110712533D02*
X160836017Y-110712533D01*
X160836017Y-110712533D02*
X160936017Y-110745866D01*
X160936017Y-110745866D02*
X160969350Y-110779200D01*
X108658207Y-79701069D02*
X108201064Y-79701069D01*
X108429636Y-79701069D02*
X108429636Y-78701069D01*
X108429636Y-78701069D02*
X108353445Y-78843926D01*
X108353445Y-78843926D02*
X108277255Y-78939164D01*
X108277255Y-78939164D02*
X108201064Y-78986783D01*
X108962969Y-78796307D02*
X109001065Y-78748688D01*
X109001065Y-78748688D02*
X109077255Y-78701069D01*
X109077255Y-78701069D02*
X109267731Y-78701069D01*
X109267731Y-78701069D02*
X109343922Y-78748688D01*
X109343922Y-78748688D02*
X109382017Y-78796307D01*
X109382017Y-78796307D02*
X109420112Y-78891545D01*
X109420112Y-78891545D02*
X109420112Y-78986783D01*
X109420112Y-78986783D02*
X109382017Y-79129640D01*
X109382017Y-79129640D02*
X108924874Y-79701069D01*
X108924874Y-79701069D02*
X109420112Y-79701069D01*
X146262969Y-78701069D02*
X146758207Y-78701069D01*
X146758207Y-78701069D02*
X146491541Y-79082021D01*
X146491541Y-79082021D02*
X146605826Y-79082021D01*
X146605826Y-79082021D02*
X146682017Y-79129640D01*
X146682017Y-79129640D02*
X146720112Y-79177259D01*
X146720112Y-79177259D02*
X146758207Y-79272497D01*
X146758207Y-79272497D02*
X146758207Y-79510592D01*
X146758207Y-79510592D02*
X146720112Y-79605830D01*
X146720112Y-79605830D02*
X146682017Y-79653450D01*
X146682017Y-79653450D02*
X146605826Y-79701069D01*
X146605826Y-79701069D02*
X146377255Y-79701069D01*
X146377255Y-79701069D02*
X146301064Y-79653450D01*
X146301064Y-79653450D02*
X146262969Y-79605830D01*
X147062969Y-78796307D02*
X147101065Y-78748688D01*
X147101065Y-78748688D02*
X147177255Y-78701069D01*
X147177255Y-78701069D02*
X147367731Y-78701069D01*
X147367731Y-78701069D02*
X147443922Y-78748688D01*
X147443922Y-78748688D02*
X147482017Y-78796307D01*
X147482017Y-78796307D02*
X147520112Y-78891545D01*
X147520112Y-78891545D02*
X147520112Y-78986783D01*
X147520112Y-78986783D02*
X147482017Y-79129640D01*
X147482017Y-79129640D02*
X147024874Y-79701069D01*
X147024874Y-79701069D02*
X147520112Y-79701069D01*
X145402380Y-96431069D02*
X145897618Y-96431069D01*
X145897618Y-96431069D02*
X145630952Y-96812021D01*
X145630952Y-96812021D02*
X145745237Y-96812021D01*
X145745237Y-96812021D02*
X145821428Y-96859640D01*
X145821428Y-96859640D02*
X145859523Y-96907259D01*
X145859523Y-96907259D02*
X145897618Y-97002497D01*
X145897618Y-97002497D02*
X145897618Y-97240592D01*
X145897618Y-97240592D02*
X145859523Y-97335830D01*
X145859523Y-97335830D02*
X145821428Y-97383450D01*
X145821428Y-97383450D02*
X145745237Y-97431069D01*
X145745237Y-97431069D02*
X145516666Y-97431069D01*
X145516666Y-97431069D02*
X145440475Y-97383450D01*
X145440475Y-97383450D02*
X145402380Y-97335830D01*
X146202380Y-96526307D02*
X146240476Y-96478688D01*
X146240476Y-96478688D02*
X146316666Y-96431069D01*
X146316666Y-96431069D02*
X146507142Y-96431069D01*
X146507142Y-96431069D02*
X146583333Y-96478688D01*
X146583333Y-96478688D02*
X146621428Y-96526307D01*
X146621428Y-96526307D02*
X146659523Y-96621545D01*
X146659523Y-96621545D02*
X146659523Y-96716783D01*
X146659523Y-96716783D02*
X146621428Y-96859640D01*
X146621428Y-96859640D02*
X146164285Y-97431069D01*
X146164285Y-97431069D02*
X146659523Y-97431069D01*
X175069523Y-96431069D02*
X174688571Y-96431069D01*
X174688571Y-96431069D02*
X174650475Y-96907259D01*
X174650475Y-96907259D02*
X174688571Y-96859640D01*
X174688571Y-96859640D02*
X174764761Y-96812021D01*
X174764761Y-96812021D02*
X174955237Y-96812021D01*
X174955237Y-96812021D02*
X175031428Y-96859640D01*
X175031428Y-96859640D02*
X175069523Y-96907259D01*
X175069523Y-96907259D02*
X175107618Y-97002497D01*
X175107618Y-97002497D02*
X175107618Y-97240592D01*
X175107618Y-97240592D02*
X175069523Y-97335830D01*
X175069523Y-97335830D02*
X175031428Y-97383450D01*
X175031428Y-97383450D02*
X174955237Y-97431069D01*
X174955237Y-97431069D02*
X174764761Y-97431069D01*
X174764761Y-97431069D02*
X174688571Y-97383450D01*
X174688571Y-97383450D02*
X174650475Y-97335830D01*
X175412380Y-96526307D02*
X175450476Y-96478688D01*
X175450476Y-96478688D02*
X175526666Y-96431069D01*
X175526666Y-96431069D02*
X175717142Y-96431069D01*
X175717142Y-96431069D02*
X175793333Y-96478688D01*
X175793333Y-96478688D02*
X175831428Y-96526307D01*
X175831428Y-96526307D02*
X175869523Y-96621545D01*
X175869523Y-96621545D02*
X175869523Y-96716783D01*
X175869523Y-96716783D02*
X175831428Y-96859640D01*
X175831428Y-96859640D02*
X175374285Y-97431069D01*
X175374285Y-97431069D02*
X175869523Y-97431069D01*
X121767618Y-97431069D02*
X121310475Y-97431069D01*
X121539047Y-97431069D02*
X121539047Y-96431069D01*
X121539047Y-96431069D02*
X121462856Y-96573926D01*
X121462856Y-96573926D02*
X121386666Y-96669164D01*
X121386666Y-96669164D02*
X121310475Y-96716783D01*
X122034285Y-96431069D02*
X122567619Y-96431069D01*
X122567619Y-96431069D02*
X122224761Y-97431069D01*
X123898207Y-79701069D02*
X123441064Y-79701069D01*
X123669636Y-79701069D02*
X123669636Y-78701069D01*
X123669636Y-78701069D02*
X123593445Y-78843926D01*
X123593445Y-78843926D02*
X123517255Y-78939164D01*
X123517255Y-78939164D02*
X123441064Y-78986783D01*
X124583922Y-78701069D02*
X124431541Y-78701069D01*
X124431541Y-78701069D02*
X124355350Y-78748688D01*
X124355350Y-78748688D02*
X124317255Y-78796307D01*
X124317255Y-78796307D02*
X124241065Y-78939164D01*
X124241065Y-78939164D02*
X124202969Y-79129640D01*
X124202969Y-79129640D02*
X124202969Y-79510592D01*
X124202969Y-79510592D02*
X124241065Y-79605830D01*
X124241065Y-79605830D02*
X124279160Y-79653450D01*
X124279160Y-79653450D02*
X124355350Y-79701069D01*
X124355350Y-79701069D02*
X124507731Y-79701069D01*
X124507731Y-79701069D02*
X124583922Y-79653450D01*
X124583922Y-79653450D02*
X124622017Y-79605830D01*
X124622017Y-79605830D02*
X124660112Y-79510592D01*
X124660112Y-79510592D02*
X124660112Y-79272497D01*
X124660112Y-79272497D02*
X124622017Y-79177259D01*
X124622017Y-79177259D02*
X124583922Y-79129640D01*
X124583922Y-79129640D02*
X124507731Y-79082021D01*
X124507731Y-79082021D02*
X124355350Y-79082021D01*
X124355350Y-79082021D02*
X124279160Y-79129640D01*
X124279160Y-79129640D02*
X124241065Y-79177259D01*
X124241065Y-79177259D02*
X124202969Y-79272497D01*
X177609523Y-96431069D02*
X177228571Y-96431069D01*
X177228571Y-96431069D02*
X177190475Y-96907259D01*
X177190475Y-96907259D02*
X177228571Y-96859640D01*
X177228571Y-96859640D02*
X177304761Y-96812021D01*
X177304761Y-96812021D02*
X177495237Y-96812021D01*
X177495237Y-96812021D02*
X177571428Y-96859640D01*
X177571428Y-96859640D02*
X177609523Y-96907259D01*
X177609523Y-96907259D02*
X177647618Y-97002497D01*
X177647618Y-97002497D02*
X177647618Y-97240592D01*
X177647618Y-97240592D02*
X177609523Y-97335830D01*
X177609523Y-97335830D02*
X177571428Y-97383450D01*
X177571428Y-97383450D02*
X177495237Y-97431069D01*
X177495237Y-97431069D02*
X177304761Y-97431069D01*
X177304761Y-97431069D02*
X177228571Y-97383450D01*
X177228571Y-97383450D02*
X177190475Y-97335830D01*
X177914285Y-96431069D02*
X178409523Y-96431069D01*
X178409523Y-96431069D02*
X178142857Y-96812021D01*
X178142857Y-96812021D02*
X178257142Y-96812021D01*
X178257142Y-96812021D02*
X178333333Y-96859640D01*
X178333333Y-96859640D02*
X178371428Y-96907259D01*
X178371428Y-96907259D02*
X178409523Y-97002497D01*
X178409523Y-97002497D02*
X178409523Y-97240592D01*
X178409523Y-97240592D02*
X178371428Y-97335830D01*
X178371428Y-97335830D02*
X178333333Y-97383450D01*
X178333333Y-97383450D02*
X178257142Y-97431069D01*
X178257142Y-97431069D02*
X178028571Y-97431069D01*
X178028571Y-97431069D02*
X177952380Y-97383450D01*
X177952380Y-97383450D02*
X177914285Y-97335830D01*
X172529523Y-96431069D02*
X172148571Y-96431069D01*
X172148571Y-96431069D02*
X172110475Y-96907259D01*
X172110475Y-96907259D02*
X172148571Y-96859640D01*
X172148571Y-96859640D02*
X172224761Y-96812021D01*
X172224761Y-96812021D02*
X172415237Y-96812021D01*
X172415237Y-96812021D02*
X172491428Y-96859640D01*
X172491428Y-96859640D02*
X172529523Y-96907259D01*
X172529523Y-96907259D02*
X172567618Y-97002497D01*
X172567618Y-97002497D02*
X172567618Y-97240592D01*
X172567618Y-97240592D02*
X172529523Y-97335830D01*
X172529523Y-97335830D02*
X172491428Y-97383450D01*
X172491428Y-97383450D02*
X172415237Y-97431069D01*
X172415237Y-97431069D02*
X172224761Y-97431069D01*
X172224761Y-97431069D02*
X172148571Y-97383450D01*
X172148571Y-97383450D02*
X172110475Y-97335830D01*
X173329523Y-97431069D02*
X172872380Y-97431069D01*
X173100952Y-97431069D02*
X173100952Y-96431069D01*
X173100952Y-96431069D02*
X173024761Y-96573926D01*
X173024761Y-96573926D02*
X172948571Y-96669164D01*
X172948571Y-96669164D02*
X172872380Y-96716783D01*
X135139350Y-111412533D02*
X135139350Y-110712533D01*
X135139350Y-110712533D02*
X135406017Y-110712533D01*
X135406017Y-110712533D02*
X135472684Y-110745866D01*
X135472684Y-110745866D02*
X135506017Y-110779200D01*
X135506017Y-110779200D02*
X135539350Y-110845866D01*
X135539350Y-110845866D02*
X135539350Y-110945866D01*
X135539350Y-110945866D02*
X135506017Y-111012533D01*
X135506017Y-111012533D02*
X135472684Y-111045866D01*
X135472684Y-111045866D02*
X135406017Y-111079200D01*
X135406017Y-111079200D02*
X135139350Y-111079200D01*
X136072684Y-111045866D02*
X136172684Y-111079200D01*
X136172684Y-111079200D02*
X136206017Y-111112533D01*
X136206017Y-111112533D02*
X136239350Y-111179200D01*
X136239350Y-111179200D02*
X136239350Y-111279200D01*
X136239350Y-111279200D02*
X136206017Y-111345866D01*
X136206017Y-111345866D02*
X136172684Y-111379200D01*
X136172684Y-111379200D02*
X136106017Y-111412533D01*
X136106017Y-111412533D02*
X135839350Y-111412533D01*
X135839350Y-111412533D02*
X135839350Y-110712533D01*
X135839350Y-110712533D02*
X136072684Y-110712533D01*
X136072684Y-110712533D02*
X136139350Y-110745866D01*
X136139350Y-110745866D02*
X136172684Y-110779200D01*
X136172684Y-110779200D02*
X136206017Y-110845866D01*
X136206017Y-110845866D02*
X136206017Y-110912533D01*
X136206017Y-110912533D02*
X136172684Y-110979200D01*
X136172684Y-110979200D02*
X136139350Y-111012533D01*
X136139350Y-111012533D02*
X136072684Y-111045866D01*
X136072684Y-111045866D02*
X135839350Y-111045866D01*
X136906017Y-111412533D02*
X136506017Y-111412533D01*
X136706017Y-111412533D02*
X136706017Y-110712533D01*
X136706017Y-110712533D02*
X136639350Y-110812533D01*
X136639350Y-110812533D02*
X136572684Y-110879200D01*
X136572684Y-110879200D02*
X136506017Y-110912533D01*
X142452969Y-78701069D02*
X142948207Y-78701069D01*
X142948207Y-78701069D02*
X142681541Y-79082021D01*
X142681541Y-79082021D02*
X142795826Y-79082021D01*
X142795826Y-79082021D02*
X142872017Y-79129640D01*
X142872017Y-79129640D02*
X142910112Y-79177259D01*
X142910112Y-79177259D02*
X142948207Y-79272497D01*
X142948207Y-79272497D02*
X142948207Y-79510592D01*
X142948207Y-79510592D02*
X142910112Y-79605830D01*
X142910112Y-79605830D02*
X142872017Y-79653450D01*
X142872017Y-79653450D02*
X142795826Y-79701069D01*
X142795826Y-79701069D02*
X142567255Y-79701069D01*
X142567255Y-79701069D02*
X142491064Y-79653450D01*
X142491064Y-79653450D02*
X142452969Y-79605830D01*
X143710112Y-79701069D02*
X143252969Y-79701069D01*
X143481541Y-79701069D02*
X143481541Y-78701069D01*
X143481541Y-78701069D02*
X143405350Y-78843926D01*
X143405350Y-78843926D02*
X143329160Y-78939164D01*
X143329160Y-78939164D02*
X143252969Y-78986783D01*
X112468207Y-79701069D02*
X112011064Y-79701069D01*
X112239636Y-79701069D02*
X112239636Y-78701069D01*
X112239636Y-78701069D02*
X112163445Y-78843926D01*
X112163445Y-78843926D02*
X112087255Y-78939164D01*
X112087255Y-78939164D02*
X112011064Y-78986783D01*
X112734874Y-78701069D02*
X113230112Y-78701069D01*
X113230112Y-78701069D02*
X112963446Y-79082021D01*
X112963446Y-79082021D02*
X113077731Y-79082021D01*
X113077731Y-79082021D02*
X113153922Y-79129640D01*
X113153922Y-79129640D02*
X113192017Y-79177259D01*
X113192017Y-79177259D02*
X113230112Y-79272497D01*
X113230112Y-79272497D02*
X113230112Y-79510592D01*
X113230112Y-79510592D02*
X113192017Y-79605830D01*
X113192017Y-79605830D02*
X113153922Y-79653450D01*
X113153922Y-79653450D02*
X113077731Y-79701069D01*
X113077731Y-79701069D02*
X112849160Y-79701069D01*
X112849160Y-79701069D02*
X112772969Y-79653450D01*
X112772969Y-79653450D02*
X112734874Y-79605830D01*
X162176017Y-110745866D02*
X162109350Y-110712533D01*
X162109350Y-110712533D02*
X162009350Y-110712533D01*
X162009350Y-110712533D02*
X161909350Y-110745866D01*
X161909350Y-110745866D02*
X161842684Y-110812533D01*
X161842684Y-110812533D02*
X161809350Y-110879200D01*
X161809350Y-110879200D02*
X161776017Y-111012533D01*
X161776017Y-111012533D02*
X161776017Y-111112533D01*
X161776017Y-111112533D02*
X161809350Y-111245866D01*
X161809350Y-111245866D02*
X161842684Y-111312533D01*
X161842684Y-111312533D02*
X161909350Y-111379200D01*
X161909350Y-111379200D02*
X162009350Y-111412533D01*
X162009350Y-111412533D02*
X162076017Y-111412533D01*
X162076017Y-111412533D02*
X162176017Y-111379200D01*
X162176017Y-111379200D02*
X162209350Y-111345866D01*
X162209350Y-111345866D02*
X162209350Y-111112533D01*
X162209350Y-111112533D02*
X162076017Y-111112533D01*
X162509350Y-111412533D02*
X162509350Y-110712533D01*
X162509350Y-110712533D02*
X162909350Y-111412533D01*
X162909350Y-111412533D02*
X162909350Y-110712533D01*
X163242683Y-111412533D02*
X163242683Y-110712533D01*
X163242683Y-110712533D02*
X163409350Y-110712533D01*
X163409350Y-110712533D02*
X163509350Y-110745866D01*
X163509350Y-110745866D02*
X163576017Y-110812533D01*
X163576017Y-110812533D02*
X163609350Y-110879200D01*
X163609350Y-110879200D02*
X163642683Y-111012533D01*
X163642683Y-111012533D02*
X163642683Y-111112533D01*
X163642683Y-111112533D02*
X163609350Y-111245866D01*
X163609350Y-111245866D02*
X163576017Y-111312533D01*
X163576017Y-111312533D02*
X163509350Y-111379200D01*
X163509350Y-111379200D02*
X163409350Y-111412533D01*
X163409350Y-111412533D02*
X163242683Y-111412533D01*
X135280475Y-96526307D02*
X135318571Y-96478688D01*
X135318571Y-96478688D02*
X135394761Y-96431069D01*
X135394761Y-96431069D02*
X135585237Y-96431069D01*
X135585237Y-96431069D02*
X135661428Y-96478688D01*
X135661428Y-96478688D02*
X135699523Y-96526307D01*
X135699523Y-96526307D02*
X135737618Y-96621545D01*
X135737618Y-96621545D02*
X135737618Y-96716783D01*
X135737618Y-96716783D02*
X135699523Y-96859640D01*
X135699523Y-96859640D02*
X135242380Y-97431069D01*
X135242380Y-97431069D02*
X135737618Y-97431069D01*
X136499523Y-97431069D02*
X136042380Y-97431069D01*
X136270952Y-97431069D02*
X136270952Y-96431069D01*
X136270952Y-96431069D02*
X136194761Y-96573926D01*
X136194761Y-96573926D02*
X136118571Y-96669164D01*
X136118571Y-96669164D02*
X136042380Y-96716783D01*
X127708207Y-79701069D02*
X127251064Y-79701069D01*
X127479636Y-79701069D02*
X127479636Y-78701069D01*
X127479636Y-78701069D02*
X127403445Y-78843926D01*
X127403445Y-78843926D02*
X127327255Y-78939164D01*
X127327255Y-78939164D02*
X127251064Y-78986783D01*
X127974874Y-78701069D02*
X128508208Y-78701069D01*
X128508208Y-78701069D02*
X128165350Y-79701069D01*
X154302017Y-79034402D02*
X154302017Y-79701069D01*
X154111541Y-78653450D02*
X153921064Y-79367735D01*
X153921064Y-79367735D02*
X154416303Y-79367735D01*
X155140112Y-79701069D02*
X154682969Y-79701069D01*
X154911541Y-79701069D02*
X154911541Y-78701069D01*
X154911541Y-78701069D02*
X154835350Y-78843926D01*
X154835350Y-78843926D02*
X154759160Y-78939164D01*
X154759160Y-78939164D02*
X154682969Y-78986783D01*
D11*
X137615283Y-111413833D02*
X137615283Y-110713833D01*
X137615283Y-110713833D02*
X137805759Y-110713833D01*
X137805759Y-110713833D02*
X137853378Y-110747166D01*
X137853378Y-110747166D02*
X137877188Y-110780500D01*
X137877188Y-110780500D02*
X137900997Y-110847166D01*
X137900997Y-110847166D02*
X137900997Y-110947166D01*
X137900997Y-110947166D02*
X137877188Y-111013833D01*
X137877188Y-111013833D02*
X137853378Y-111047166D01*
X137853378Y-111047166D02*
X137805759Y-111080500D01*
X137805759Y-111080500D02*
X137615283Y-111080500D01*
X138115283Y-111047166D02*
X138281950Y-111047166D01*
X138353378Y-111413833D02*
X138115283Y-111413833D01*
X138115283Y-111413833D02*
X138115283Y-110713833D01*
X138115283Y-110713833D02*
X138353378Y-110713833D01*
X138829569Y-111413833D02*
X138543855Y-111413833D01*
X138686712Y-111413833D02*
X138686712Y-110713833D01*
X138686712Y-110713833D02*
X138639093Y-110813833D01*
X138639093Y-110813833D02*
X138591474Y-110880500D01*
X138591474Y-110880500D02*
X138543855Y-110913833D01*
X139139092Y-110713833D02*
X139186711Y-110713833D01*
X139186711Y-110713833D02*
X139234330Y-110747166D01*
X139234330Y-110747166D02*
X139258140Y-110780500D01*
X139258140Y-110780500D02*
X139281949Y-110847166D01*
X139281949Y-110847166D02*
X139305759Y-110980500D01*
X139305759Y-110980500D02*
X139305759Y-111147166D01*
X139305759Y-111147166D02*
X139281949Y-111280500D01*
X139281949Y-111280500D02*
X139258140Y-111347166D01*
X139258140Y-111347166D02*
X139234330Y-111380500D01*
X139234330Y-111380500D02*
X139186711Y-111413833D01*
X139186711Y-111413833D02*
X139139092Y-111413833D01*
X139139092Y-111413833D02*
X139091473Y-111380500D01*
X139091473Y-111380500D02*
X139067664Y-111347166D01*
X139067664Y-111347166D02*
X139043854Y-111280500D01*
X139043854Y-111280500D02*
X139020045Y-111147166D01*
X139020045Y-111147166D02*
X139020045Y-110980500D01*
X139020045Y-110980500D02*
X139043854Y-110847166D01*
X139043854Y-110847166D02*
X139067664Y-110780500D01*
X139067664Y-110780500D02*
X139091473Y-110747166D01*
X139091473Y-110747166D02*
X139139092Y-110713833D01*
D10*
X104848207Y-79701069D02*
X104391064Y-79701069D01*
X104619636Y-79701069D02*
X104619636Y-78701069D01*
X104619636Y-78701069D02*
X104543445Y-78843926D01*
X104543445Y-78843926D02*
X104467255Y-78939164D01*
X104467255Y-78939164D02*
X104391064Y-78986783D01*
X105610112Y-79701069D02*
X105152969Y-79701069D01*
X105381541Y-79701069D02*
X105381541Y-78701069D01*
X105381541Y-78701069D02*
X105305350Y-78843926D01*
X105305350Y-78843926D02*
X105229160Y-78939164D01*
X105229160Y-78939164D02*
X105152969Y-78986783D01*
D11*
X140155283Y-111413833D02*
X140155283Y-110713833D01*
X140155283Y-110713833D02*
X140345759Y-110713833D01*
X140345759Y-110713833D02*
X140393378Y-110747166D01*
X140393378Y-110747166D02*
X140417188Y-110780500D01*
X140417188Y-110780500D02*
X140440997Y-110847166D01*
X140440997Y-110847166D02*
X140440997Y-110947166D01*
X140440997Y-110947166D02*
X140417188Y-111013833D01*
X140417188Y-111013833D02*
X140393378Y-111047166D01*
X140393378Y-111047166D02*
X140345759Y-111080500D01*
X140345759Y-111080500D02*
X140155283Y-111080500D01*
X140655283Y-111047166D02*
X140821950Y-111047166D01*
X140893378Y-111413833D02*
X140655283Y-111413833D01*
X140655283Y-111413833D02*
X140655283Y-110713833D01*
X140655283Y-110713833D02*
X140893378Y-110713833D01*
X141369569Y-111413833D02*
X141083855Y-111413833D01*
X141226712Y-111413833D02*
X141226712Y-110713833D01*
X141226712Y-110713833D02*
X141179093Y-110813833D01*
X141179093Y-110813833D02*
X141131474Y-110880500D01*
X141131474Y-110880500D02*
X141083855Y-110913833D01*
X141845759Y-111413833D02*
X141560045Y-111413833D01*
X141702902Y-111413833D02*
X141702902Y-110713833D01*
X141702902Y-110713833D02*
X141655283Y-110813833D01*
X141655283Y-110813833D02*
X141607664Y-110880500D01*
X141607664Y-110880500D02*
X141560045Y-110913833D01*
D10*
X150072969Y-78701069D02*
X150568207Y-78701069D01*
X150568207Y-78701069D02*
X150301541Y-79082021D01*
X150301541Y-79082021D02*
X150415826Y-79082021D01*
X150415826Y-79082021D02*
X150492017Y-79129640D01*
X150492017Y-79129640D02*
X150530112Y-79177259D01*
X150530112Y-79177259D02*
X150568207Y-79272497D01*
X150568207Y-79272497D02*
X150568207Y-79510592D01*
X150568207Y-79510592D02*
X150530112Y-79605830D01*
X150530112Y-79605830D02*
X150492017Y-79653450D01*
X150492017Y-79653450D02*
X150415826Y-79701069D01*
X150415826Y-79701069D02*
X150187255Y-79701069D01*
X150187255Y-79701069D02*
X150111064Y-79653450D01*
X150111064Y-79653450D02*
X150072969Y-79605830D01*
X150834874Y-78701069D02*
X151330112Y-78701069D01*
X151330112Y-78701069D02*
X151063446Y-79082021D01*
X151063446Y-79082021D02*
X151177731Y-79082021D01*
X151177731Y-79082021D02*
X151253922Y-79129640D01*
X151253922Y-79129640D02*
X151292017Y-79177259D01*
X151292017Y-79177259D02*
X151330112Y-79272497D01*
X151330112Y-79272497D02*
X151330112Y-79510592D01*
X151330112Y-79510592D02*
X151292017Y-79605830D01*
X151292017Y-79605830D02*
X151253922Y-79653450D01*
X151253922Y-79653450D02*
X151177731Y-79701069D01*
X151177731Y-79701069D02*
X150949160Y-79701069D01*
X150949160Y-79701069D02*
X150872969Y-79653450D01*
X150872969Y-79653450D02*
X150834874Y-79605830D01*
X134871064Y-78796307D02*
X134909160Y-78748688D01*
X134909160Y-78748688D02*
X134985350Y-78701069D01*
X134985350Y-78701069D02*
X135175826Y-78701069D01*
X135175826Y-78701069D02*
X135252017Y-78748688D01*
X135252017Y-78748688D02*
X135290112Y-78796307D01*
X135290112Y-78796307D02*
X135328207Y-78891545D01*
X135328207Y-78891545D02*
X135328207Y-78986783D01*
X135328207Y-78986783D02*
X135290112Y-79129640D01*
X135290112Y-79129640D02*
X134832969Y-79701069D01*
X134832969Y-79701069D02*
X135328207Y-79701069D01*
X135632969Y-78796307D02*
X135671065Y-78748688D01*
X135671065Y-78748688D02*
X135747255Y-78701069D01*
X135747255Y-78701069D02*
X135937731Y-78701069D01*
X135937731Y-78701069D02*
X136013922Y-78748688D01*
X136013922Y-78748688D02*
X136052017Y-78796307D01*
X136052017Y-78796307D02*
X136090112Y-78891545D01*
X136090112Y-78891545D02*
X136090112Y-78986783D01*
X136090112Y-78986783D02*
X136052017Y-79129640D01*
X136052017Y-79129640D02*
X135594874Y-79701069D01*
X135594874Y-79701069D02*
X136090112Y-79701069D01*
D11*
X166872902Y-111413833D02*
X166872902Y-110713833D01*
X166872902Y-110713833D02*
X167139569Y-110713833D01*
X167139569Y-110713833D02*
X167206236Y-110747166D01*
X167206236Y-110747166D02*
X167239569Y-110780500D01*
X167239569Y-110780500D02*
X167272902Y-110847166D01*
X167272902Y-110847166D02*
X167272902Y-110947166D01*
X167272902Y-110947166D02*
X167239569Y-111013833D01*
X167239569Y-111013833D02*
X167206236Y-111047166D01*
X167206236Y-111047166D02*
X167139569Y-111080500D01*
X167139569Y-111080500D02*
X166872902Y-111080500D01*
X167572902Y-111047166D02*
X167806236Y-111047166D01*
X167906236Y-111413833D02*
X167572902Y-111413833D01*
X167572902Y-111413833D02*
X167572902Y-110713833D01*
X167572902Y-110713833D02*
X167906236Y-110713833D01*
X168139569Y-110713833D02*
X168606235Y-110713833D01*
X168606235Y-110713833D02*
X168306235Y-111413833D01*
D10*
X106527618Y-97431069D02*
X106070475Y-97431069D01*
X106299047Y-97431069D02*
X106299047Y-96431069D01*
X106299047Y-96431069D02*
X106222856Y-96573926D01*
X106222856Y-96573926D02*
X106146666Y-96669164D01*
X106146666Y-96669164D02*
X106070475Y-96716783D01*
X107289523Y-97431069D02*
X106832380Y-97431069D01*
X107060952Y-97431069D02*
X107060952Y-96431069D01*
X107060952Y-96431069D02*
X106984761Y-96573926D01*
X106984761Y-96573926D02*
X106908571Y-96669164D01*
X106908571Y-96669164D02*
X106832380Y-96716783D01*
X167411428Y-96764402D02*
X167411428Y-97431069D01*
X167220952Y-96383450D02*
X167030475Y-97097735D01*
X167030475Y-97097735D02*
X167525714Y-97097735D01*
X167792380Y-96526307D02*
X167830476Y-96478688D01*
X167830476Y-96478688D02*
X167906666Y-96431069D01*
X167906666Y-96431069D02*
X168097142Y-96431069D01*
X168097142Y-96431069D02*
X168173333Y-96478688D01*
X168173333Y-96478688D02*
X168211428Y-96526307D01*
X168211428Y-96526307D02*
X168249523Y-96621545D01*
X168249523Y-96621545D02*
X168249523Y-96716783D01*
X168249523Y-96716783D02*
X168211428Y-96859640D01*
X168211428Y-96859640D02*
X167754285Y-97431069D01*
X167754285Y-97431069D02*
X168249523Y-97431069D01*
X116687618Y-97431069D02*
X116230475Y-97431069D01*
X116459047Y-97431069D02*
X116459047Y-96431069D01*
X116459047Y-96431069D02*
X116382856Y-96573926D01*
X116382856Y-96573926D02*
X116306666Y-96669164D01*
X116306666Y-96669164D02*
X116230475Y-96716783D01*
X117411428Y-96431069D02*
X117030476Y-96431069D01*
X117030476Y-96431069D02*
X116992380Y-96907259D01*
X116992380Y-96907259D02*
X117030476Y-96859640D01*
X117030476Y-96859640D02*
X117106666Y-96812021D01*
X117106666Y-96812021D02*
X117297142Y-96812021D01*
X117297142Y-96812021D02*
X117373333Y-96859640D01*
X117373333Y-96859640D02*
X117411428Y-96907259D01*
X117411428Y-96907259D02*
X117449523Y-97002497D01*
X117449523Y-97002497D02*
X117449523Y-97240592D01*
X117449523Y-97240592D02*
X117411428Y-97335830D01*
X117411428Y-97335830D02*
X117373333Y-97383450D01*
X117373333Y-97383450D02*
X117297142Y-97431069D01*
X117297142Y-97431069D02*
X117106666Y-97431069D01*
X117106666Y-97431069D02*
X117030476Y-97383450D01*
X117030476Y-97383450D02*
X116992380Y-97335830D01*
X116278207Y-79701069D02*
X115821064Y-79701069D01*
X116049636Y-79701069D02*
X116049636Y-78701069D01*
X116049636Y-78701069D02*
X115973445Y-78843926D01*
X115973445Y-78843926D02*
X115897255Y-78939164D01*
X115897255Y-78939164D02*
X115821064Y-78986783D01*
X116963922Y-79034402D02*
X116963922Y-79701069D01*
X116773446Y-78653450D02*
X116582969Y-79367735D01*
X116582969Y-79367735D02*
X117078208Y-79367735D01*
X169951428Y-96764402D02*
X169951428Y-97431069D01*
X169760952Y-96383450D02*
X169570475Y-97097735D01*
X169570475Y-97097735D02*
X170065714Y-97097735D01*
X170294285Y-96431069D02*
X170789523Y-96431069D01*
X170789523Y-96431069D02*
X170522857Y-96812021D01*
X170522857Y-96812021D02*
X170637142Y-96812021D01*
X170637142Y-96812021D02*
X170713333Y-96859640D01*
X170713333Y-96859640D02*
X170751428Y-96907259D01*
X170751428Y-96907259D02*
X170789523Y-97002497D01*
X170789523Y-97002497D02*
X170789523Y-97240592D01*
X170789523Y-97240592D02*
X170751428Y-97335830D01*
X170751428Y-97335830D02*
X170713333Y-97383450D01*
X170713333Y-97383450D02*
X170637142Y-97431069D01*
X170637142Y-97431069D02*
X170408571Y-97431069D01*
X170408571Y-97431069D02*
X170332380Y-97383450D01*
X170332380Y-97383450D02*
X170294285Y-97335830D01*
X161922017Y-79034402D02*
X161922017Y-79701069D01*
X161731541Y-78653450D02*
X161541064Y-79367735D01*
X161541064Y-79367735D02*
X162036303Y-79367735D01*
X162264874Y-78701069D02*
X162760112Y-78701069D01*
X162760112Y-78701069D02*
X162493446Y-79082021D01*
X162493446Y-79082021D02*
X162607731Y-79082021D01*
X162607731Y-79082021D02*
X162683922Y-79129640D01*
X162683922Y-79129640D02*
X162722017Y-79177259D01*
X162722017Y-79177259D02*
X162760112Y-79272497D01*
X162760112Y-79272497D02*
X162760112Y-79510592D01*
X162760112Y-79510592D02*
X162722017Y-79605830D01*
X162722017Y-79605830D02*
X162683922Y-79653450D01*
X162683922Y-79653450D02*
X162607731Y-79701069D01*
X162607731Y-79701069D02*
X162379160Y-79701069D01*
X162379160Y-79701069D02*
X162302969Y-79653450D01*
X162302969Y-79653450D02*
X162264874Y-79605830D01*
X147942380Y-96431069D02*
X148437618Y-96431069D01*
X148437618Y-96431069D02*
X148170952Y-96812021D01*
X148170952Y-96812021D02*
X148285237Y-96812021D01*
X148285237Y-96812021D02*
X148361428Y-96859640D01*
X148361428Y-96859640D02*
X148399523Y-96907259D01*
X148399523Y-96907259D02*
X148437618Y-97002497D01*
X148437618Y-97002497D02*
X148437618Y-97240592D01*
X148437618Y-97240592D02*
X148399523Y-97335830D01*
X148399523Y-97335830D02*
X148361428Y-97383450D01*
X148361428Y-97383450D02*
X148285237Y-97431069D01*
X148285237Y-97431069D02*
X148056666Y-97431069D01*
X148056666Y-97431069D02*
X147980475Y-97383450D01*
X147980475Y-97383450D02*
X147942380Y-97335830D01*
X148704285Y-96431069D02*
X149199523Y-96431069D01*
X149199523Y-96431069D02*
X148932857Y-96812021D01*
X148932857Y-96812021D02*
X149047142Y-96812021D01*
X149047142Y-96812021D02*
X149123333Y-96859640D01*
X149123333Y-96859640D02*
X149161428Y-96907259D01*
X149161428Y-96907259D02*
X149199523Y-97002497D01*
X149199523Y-97002497D02*
X149199523Y-97240592D01*
X149199523Y-97240592D02*
X149161428Y-97335830D01*
X149161428Y-97335830D02*
X149123333Y-97383450D01*
X149123333Y-97383450D02*
X149047142Y-97431069D01*
X149047142Y-97431069D02*
X148818571Y-97431069D01*
X148818571Y-97431069D02*
X148742380Y-97383450D01*
X148742380Y-97383450D02*
X148704285Y-97335830D01*
X119227618Y-97431069D02*
X118770475Y-97431069D01*
X118999047Y-97431069D02*
X118999047Y-96431069D01*
X118999047Y-96431069D02*
X118922856Y-96573926D01*
X118922856Y-96573926D02*
X118846666Y-96669164D01*
X118846666Y-96669164D02*
X118770475Y-96716783D01*
X119913333Y-96431069D02*
X119760952Y-96431069D01*
X119760952Y-96431069D02*
X119684761Y-96478688D01*
X119684761Y-96478688D02*
X119646666Y-96526307D01*
X119646666Y-96526307D02*
X119570476Y-96669164D01*
X119570476Y-96669164D02*
X119532380Y-96859640D01*
X119532380Y-96859640D02*
X119532380Y-97240592D01*
X119532380Y-97240592D02*
X119570476Y-97335830D01*
X119570476Y-97335830D02*
X119608571Y-97383450D01*
X119608571Y-97383450D02*
X119684761Y-97431069D01*
X119684761Y-97431069D02*
X119837142Y-97431069D01*
X119837142Y-97431069D02*
X119913333Y-97383450D01*
X119913333Y-97383450D02*
X119951428Y-97335830D01*
X119951428Y-97335830D02*
X119989523Y-97240592D01*
X119989523Y-97240592D02*
X119989523Y-97002497D01*
X119989523Y-97002497D02*
X119951428Y-96907259D01*
X119951428Y-96907259D02*
X119913333Y-96859640D01*
X119913333Y-96859640D02*
X119837142Y-96812021D01*
X119837142Y-96812021D02*
X119684761Y-96812021D01*
X119684761Y-96812021D02*
X119608571Y-96859640D01*
X119608571Y-96859640D02*
X119570476Y-96907259D01*
X119570476Y-96907259D02*
X119532380Y-97002497D01*
X109067618Y-97431069D02*
X108610475Y-97431069D01*
X108839047Y-97431069D02*
X108839047Y-96431069D01*
X108839047Y-96431069D02*
X108762856Y-96573926D01*
X108762856Y-96573926D02*
X108686666Y-96669164D01*
X108686666Y-96669164D02*
X108610475Y-96716783D01*
X109372380Y-96526307D02*
X109410476Y-96478688D01*
X109410476Y-96478688D02*
X109486666Y-96431069D01*
X109486666Y-96431069D02*
X109677142Y-96431069D01*
X109677142Y-96431069D02*
X109753333Y-96478688D01*
X109753333Y-96478688D02*
X109791428Y-96526307D01*
X109791428Y-96526307D02*
X109829523Y-96621545D01*
X109829523Y-96621545D02*
X109829523Y-96716783D01*
X109829523Y-96716783D02*
X109791428Y-96859640D01*
X109791428Y-96859640D02*
X109334285Y-97431069D01*
X109334285Y-97431069D02*
X109829523Y-97431069D01*
X138681064Y-78796307D02*
X138719160Y-78748688D01*
X138719160Y-78748688D02*
X138795350Y-78701069D01*
X138795350Y-78701069D02*
X138985826Y-78701069D01*
X138985826Y-78701069D02*
X139062017Y-78748688D01*
X139062017Y-78748688D02*
X139100112Y-78796307D01*
X139100112Y-78796307D02*
X139138207Y-78891545D01*
X139138207Y-78891545D02*
X139138207Y-78986783D01*
X139138207Y-78986783D02*
X139100112Y-79129640D01*
X139100112Y-79129640D02*
X138642969Y-79701069D01*
X138642969Y-79701069D02*
X139138207Y-79701069D01*
X139404874Y-78701069D02*
X139900112Y-78701069D01*
X139900112Y-78701069D02*
X139633446Y-79082021D01*
X139633446Y-79082021D02*
X139747731Y-79082021D01*
X139747731Y-79082021D02*
X139823922Y-79129640D01*
X139823922Y-79129640D02*
X139862017Y-79177259D01*
X139862017Y-79177259D02*
X139900112Y-79272497D01*
X139900112Y-79272497D02*
X139900112Y-79510592D01*
X139900112Y-79510592D02*
X139862017Y-79605830D01*
X139862017Y-79605830D02*
X139823922Y-79653450D01*
X139823922Y-79653450D02*
X139747731Y-79701069D01*
X139747731Y-79701069D02*
X139519160Y-79701069D01*
X139519160Y-79701069D02*
X139442969Y-79653450D01*
X139442969Y-79653450D02*
X139404874Y-79605830D01*
X103756017Y-110745866D02*
X103689350Y-110712533D01*
X103689350Y-110712533D02*
X103589350Y-110712533D01*
X103589350Y-110712533D02*
X103489350Y-110745866D01*
X103489350Y-110745866D02*
X103422684Y-110812533D01*
X103422684Y-110812533D02*
X103389350Y-110879200D01*
X103389350Y-110879200D02*
X103356017Y-111012533D01*
X103356017Y-111012533D02*
X103356017Y-111112533D01*
X103356017Y-111112533D02*
X103389350Y-111245866D01*
X103389350Y-111245866D02*
X103422684Y-111312533D01*
X103422684Y-111312533D02*
X103489350Y-111379200D01*
X103489350Y-111379200D02*
X103589350Y-111412533D01*
X103589350Y-111412533D02*
X103656017Y-111412533D01*
X103656017Y-111412533D02*
X103756017Y-111379200D01*
X103756017Y-111379200D02*
X103789350Y-111345866D01*
X103789350Y-111345866D02*
X103789350Y-111112533D01*
X103789350Y-111112533D02*
X103656017Y-111112533D01*
X104089350Y-111412533D02*
X104089350Y-110712533D01*
X104089350Y-110712533D02*
X104489350Y-111412533D01*
X104489350Y-111412533D02*
X104489350Y-110712533D01*
X104822683Y-111412533D02*
X104822683Y-110712533D01*
X104822683Y-110712533D02*
X104989350Y-110712533D01*
X104989350Y-110712533D02*
X105089350Y-110745866D01*
X105089350Y-110745866D02*
X105156017Y-110812533D01*
X105156017Y-110812533D02*
X105189350Y-110879200D01*
X105189350Y-110879200D02*
X105222683Y-111012533D01*
X105222683Y-111012533D02*
X105222683Y-111112533D01*
X105222683Y-111112533D02*
X105189350Y-111245866D01*
X105189350Y-111245866D02*
X105156017Y-111312533D01*
X105156017Y-111312533D02*
X105089350Y-111379200D01*
X105089350Y-111379200D02*
X104989350Y-111412533D01*
X104989350Y-111412533D02*
X104822683Y-111412533D01*
X140360475Y-96526307D02*
X140398571Y-96478688D01*
X140398571Y-96478688D02*
X140474761Y-96431069D01*
X140474761Y-96431069D02*
X140665237Y-96431069D01*
X140665237Y-96431069D02*
X140741428Y-96478688D01*
X140741428Y-96478688D02*
X140779523Y-96526307D01*
X140779523Y-96526307D02*
X140817618Y-96621545D01*
X140817618Y-96621545D02*
X140817618Y-96716783D01*
X140817618Y-96716783D02*
X140779523Y-96859640D01*
X140779523Y-96859640D02*
X140322380Y-97431069D01*
X140322380Y-97431069D02*
X140817618Y-97431069D01*
X141084285Y-96431069D02*
X141579523Y-96431069D01*
X141579523Y-96431069D02*
X141312857Y-96812021D01*
X141312857Y-96812021D02*
X141427142Y-96812021D01*
X141427142Y-96812021D02*
X141503333Y-96859640D01*
X141503333Y-96859640D02*
X141541428Y-96907259D01*
X141541428Y-96907259D02*
X141579523Y-97002497D01*
X141579523Y-97002497D02*
X141579523Y-97240592D01*
X141579523Y-97240592D02*
X141541428Y-97335830D01*
X141541428Y-97335830D02*
X141503333Y-97383450D01*
X141503333Y-97383450D02*
X141427142Y-97431069D01*
X141427142Y-97431069D02*
X141198571Y-97431069D01*
X141198571Y-97431069D02*
X141122380Y-97383450D01*
X141122380Y-97383450D02*
X141084285Y-97335830D01*
D11*
X108405283Y-111413833D02*
X108405283Y-110713833D01*
X108405283Y-110713833D02*
X108595759Y-110713833D01*
X108595759Y-110713833D02*
X108643378Y-110747166D01*
X108643378Y-110747166D02*
X108667188Y-110780500D01*
X108667188Y-110780500D02*
X108690997Y-110847166D01*
X108690997Y-110847166D02*
X108690997Y-110947166D01*
X108690997Y-110947166D02*
X108667188Y-111013833D01*
X108667188Y-111013833D02*
X108643378Y-111047166D01*
X108643378Y-111047166D02*
X108595759Y-111080500D01*
X108595759Y-111080500D02*
X108405283Y-111080500D01*
X108905283Y-111047166D02*
X109071950Y-111047166D01*
X109143378Y-111413833D02*
X108905283Y-111413833D01*
X108905283Y-111413833D02*
X108905283Y-110713833D01*
X108905283Y-110713833D02*
X109143378Y-110713833D01*
X109619569Y-111413833D02*
X109333855Y-111413833D01*
X109476712Y-111413833D02*
X109476712Y-110713833D01*
X109476712Y-110713833D02*
X109429093Y-110813833D01*
X109429093Y-110813833D02*
X109381474Y-110880500D01*
X109381474Y-110880500D02*
X109333855Y-110913833D01*
X109786235Y-110713833D02*
X110095759Y-110713833D01*
X110095759Y-110713833D02*
X109929092Y-110980500D01*
X109929092Y-110980500D02*
X110000521Y-110980500D01*
X110000521Y-110980500D02*
X110048140Y-111013833D01*
X110048140Y-111013833D02*
X110071949Y-111047166D01*
X110071949Y-111047166D02*
X110095759Y-111113833D01*
X110095759Y-111113833D02*
X110095759Y-111280500D01*
X110095759Y-111280500D02*
X110071949Y-111347166D01*
X110071949Y-111347166D02*
X110048140Y-111380500D01*
X110048140Y-111380500D02*
X110000521Y-111413833D01*
X110000521Y-111413833D02*
X109857664Y-111413833D01*
X109857664Y-111413833D02*
X109810045Y-111380500D01*
X109810045Y-111380500D02*
X109786235Y-111347166D01*
D10*
X165770112Y-78701069D02*
X165389160Y-78701069D01*
X165389160Y-78701069D02*
X165351064Y-79177259D01*
X165351064Y-79177259D02*
X165389160Y-79129640D01*
X165389160Y-79129640D02*
X165465350Y-79082021D01*
X165465350Y-79082021D02*
X165655826Y-79082021D01*
X165655826Y-79082021D02*
X165732017Y-79129640D01*
X165732017Y-79129640D02*
X165770112Y-79177259D01*
X165770112Y-79177259D02*
X165808207Y-79272497D01*
X165808207Y-79272497D02*
X165808207Y-79510592D01*
X165808207Y-79510592D02*
X165770112Y-79605830D01*
X165770112Y-79605830D02*
X165732017Y-79653450D01*
X165732017Y-79653450D02*
X165655826Y-79701069D01*
X165655826Y-79701069D02*
X165465350Y-79701069D01*
X165465350Y-79701069D02*
X165389160Y-79653450D01*
X165389160Y-79653450D02*
X165351064Y-79605830D01*
X166570112Y-79701069D02*
X166112969Y-79701069D01*
X166341541Y-79701069D02*
X166341541Y-78701069D01*
X166341541Y-78701069D02*
X166265350Y-78843926D01*
X166265350Y-78843926D02*
X166189160Y-78939164D01*
X166189160Y-78939164D02*
X166112969Y-78986783D01*
D11*
X142695283Y-111413833D02*
X142695283Y-110713833D01*
X142695283Y-110713833D02*
X142885759Y-110713833D01*
X142885759Y-110713833D02*
X142933378Y-110747166D01*
X142933378Y-110747166D02*
X142957188Y-110780500D01*
X142957188Y-110780500D02*
X142980997Y-110847166D01*
X142980997Y-110847166D02*
X142980997Y-110947166D01*
X142980997Y-110947166D02*
X142957188Y-111013833D01*
X142957188Y-111013833D02*
X142933378Y-111047166D01*
X142933378Y-111047166D02*
X142885759Y-111080500D01*
X142885759Y-111080500D02*
X142695283Y-111080500D01*
X143195283Y-111047166D02*
X143361950Y-111047166D01*
X143433378Y-111413833D02*
X143195283Y-111413833D01*
X143195283Y-111413833D02*
X143195283Y-110713833D01*
X143195283Y-110713833D02*
X143433378Y-110713833D01*
X143909569Y-111413833D02*
X143623855Y-111413833D01*
X143766712Y-111413833D02*
X143766712Y-110713833D01*
X143766712Y-110713833D02*
X143719093Y-110813833D01*
X143719093Y-110813833D02*
X143671474Y-110880500D01*
X143671474Y-110880500D02*
X143623855Y-110913833D01*
X144100045Y-110780500D02*
X144123854Y-110747166D01*
X144123854Y-110747166D02*
X144171473Y-110713833D01*
X144171473Y-110713833D02*
X144290521Y-110713833D01*
X144290521Y-110713833D02*
X144338140Y-110747166D01*
X144338140Y-110747166D02*
X144361949Y-110780500D01*
X144361949Y-110780500D02*
X144385759Y-110847166D01*
X144385759Y-110847166D02*
X144385759Y-110913833D01*
X144385759Y-110913833D02*
X144361949Y-111013833D01*
X144361949Y-111013833D02*
X144076235Y-111413833D01*
X144076235Y-111413833D02*
X144385759Y-111413833D01*
D10*
X120088207Y-79701069D02*
X119631064Y-79701069D01*
X119859636Y-79701069D02*
X119859636Y-78701069D01*
X119859636Y-78701069D02*
X119783445Y-78843926D01*
X119783445Y-78843926D02*
X119707255Y-78939164D01*
X119707255Y-78939164D02*
X119631064Y-78986783D01*
X120812017Y-78701069D02*
X120431065Y-78701069D01*
X120431065Y-78701069D02*
X120392969Y-79177259D01*
X120392969Y-79177259D02*
X120431065Y-79129640D01*
X120431065Y-79129640D02*
X120507255Y-79082021D01*
X120507255Y-79082021D02*
X120697731Y-79082021D01*
X120697731Y-79082021D02*
X120773922Y-79129640D01*
X120773922Y-79129640D02*
X120812017Y-79177259D01*
X120812017Y-79177259D02*
X120850112Y-79272497D01*
X120850112Y-79272497D02*
X120850112Y-79510592D01*
X120850112Y-79510592D02*
X120812017Y-79605830D01*
X120812017Y-79605830D02*
X120773922Y-79653450D01*
X120773922Y-79653450D02*
X120697731Y-79701069D01*
X120697731Y-79701069D02*
X120507255Y-79701069D01*
X120507255Y-79701069D02*
X120431065Y-79653450D01*
X120431065Y-79653450D02*
X120392969Y-79605830D01*
X114147618Y-97431069D02*
X113690475Y-97431069D01*
X113919047Y-97431069D02*
X113919047Y-96431069D01*
X113919047Y-96431069D02*
X113842856Y-96573926D01*
X113842856Y-96573926D02*
X113766666Y-96669164D01*
X113766666Y-96669164D02*
X113690475Y-96716783D01*
X114833333Y-96764402D02*
X114833333Y-97431069D01*
X114642857Y-96383450D02*
X114452380Y-97097735D01*
X114452380Y-97097735D02*
X114947619Y-97097735D01*
X132966017Y-110745866D02*
X132899350Y-110712533D01*
X132899350Y-110712533D02*
X132799350Y-110712533D01*
X132799350Y-110712533D02*
X132699350Y-110745866D01*
X132699350Y-110745866D02*
X132632684Y-110812533D01*
X132632684Y-110812533D02*
X132599350Y-110879200D01*
X132599350Y-110879200D02*
X132566017Y-111012533D01*
X132566017Y-111012533D02*
X132566017Y-111112533D01*
X132566017Y-111112533D02*
X132599350Y-111245866D01*
X132599350Y-111245866D02*
X132632684Y-111312533D01*
X132632684Y-111312533D02*
X132699350Y-111379200D01*
X132699350Y-111379200D02*
X132799350Y-111412533D01*
X132799350Y-111412533D02*
X132866017Y-111412533D01*
X132866017Y-111412533D02*
X132966017Y-111379200D01*
X132966017Y-111379200D02*
X132999350Y-111345866D01*
X132999350Y-111345866D02*
X132999350Y-111112533D01*
X132999350Y-111112533D02*
X132866017Y-111112533D01*
X133299350Y-111412533D02*
X133299350Y-110712533D01*
X133299350Y-110712533D02*
X133699350Y-111412533D01*
X133699350Y-111412533D02*
X133699350Y-110712533D01*
X134032683Y-111412533D02*
X134032683Y-110712533D01*
X134032683Y-110712533D02*
X134199350Y-110712533D01*
X134199350Y-110712533D02*
X134299350Y-110745866D01*
X134299350Y-110745866D02*
X134366017Y-110812533D01*
X134366017Y-110812533D02*
X134399350Y-110879200D01*
X134399350Y-110879200D02*
X134432683Y-111012533D01*
X134432683Y-111012533D02*
X134432683Y-111112533D01*
X134432683Y-111112533D02*
X134399350Y-111245866D01*
X134399350Y-111245866D02*
X134366017Y-111312533D01*
X134366017Y-111312533D02*
X134299350Y-111379200D01*
X134299350Y-111379200D02*
X134199350Y-111412533D01*
X134199350Y-111412533D02*
X134032683Y-111412533D01*
X164871428Y-96764402D02*
X164871428Y-97431069D01*
X164680952Y-96383450D02*
X164490475Y-97097735D01*
X164490475Y-97097735D02*
X164985714Y-97097735D01*
X165709523Y-97431069D02*
X165252380Y-97431069D01*
X165480952Y-97431069D02*
X165480952Y-96431069D01*
X165480952Y-96431069D02*
X165404761Y-96573926D01*
X165404761Y-96573926D02*
X165328571Y-96669164D01*
X165328571Y-96669164D02*
X165252380Y-96716783D01*
X137820475Y-96526307D02*
X137858571Y-96478688D01*
X137858571Y-96478688D02*
X137934761Y-96431069D01*
X137934761Y-96431069D02*
X138125237Y-96431069D01*
X138125237Y-96431069D02*
X138201428Y-96478688D01*
X138201428Y-96478688D02*
X138239523Y-96526307D01*
X138239523Y-96526307D02*
X138277618Y-96621545D01*
X138277618Y-96621545D02*
X138277618Y-96716783D01*
X138277618Y-96716783D02*
X138239523Y-96859640D01*
X138239523Y-96859640D02*
X137782380Y-97431069D01*
X137782380Y-97431069D02*
X138277618Y-97431069D01*
X138582380Y-96526307D02*
X138620476Y-96478688D01*
X138620476Y-96478688D02*
X138696666Y-96431069D01*
X138696666Y-96431069D02*
X138887142Y-96431069D01*
X138887142Y-96431069D02*
X138963333Y-96478688D01*
X138963333Y-96478688D02*
X139001428Y-96526307D01*
X139001428Y-96526307D02*
X139039523Y-96621545D01*
X139039523Y-96621545D02*
X139039523Y-96716783D01*
X139039523Y-96716783D02*
X139001428Y-96859640D01*
X139001428Y-96859640D02*
X138544285Y-97431069D01*
X138544285Y-97431069D02*
X139039523Y-97431069D01*
X108954819Y-85712916D02*
X108478628Y-86046249D01*
X108954819Y-86284344D02*
X107954819Y-86284344D01*
X107954819Y-86284344D02*
X107954819Y-85903392D01*
X107954819Y-85903392D02*
X108002438Y-85808154D01*
X108002438Y-85808154D02*
X108050057Y-85760535D01*
X108050057Y-85760535D02*
X108145295Y-85712916D01*
X108145295Y-85712916D02*
X108288152Y-85712916D01*
X108288152Y-85712916D02*
X108383390Y-85760535D01*
X108383390Y-85760535D02*
X108431009Y-85808154D01*
X108431009Y-85808154D02*
X108478628Y-85903392D01*
X108478628Y-85903392D02*
X108478628Y-86284344D01*
X108954819Y-84760535D02*
X108954819Y-85331963D01*
X108954819Y-85046249D02*
X107954819Y-85046249D01*
X107954819Y-85046249D02*
X108097676Y-85141487D01*
X108097676Y-85141487D02*
X108192914Y-85236725D01*
X108192914Y-85236725D02*
X108240533Y-85331963D01*
D12*
X126190476Y-95707419D02*
X126190476Y-94707419D01*
X126190476Y-94707419D02*
X126523809Y-95421704D01*
X126523809Y-95421704D02*
X126857142Y-94707419D01*
X126857142Y-94707419D02*
X126857142Y-95707419D01*
X127285714Y-94802657D02*
X127333333Y-94755038D01*
X127333333Y-94755038D02*
X127428571Y-94707419D01*
X127428571Y-94707419D02*
X127666666Y-94707419D01*
X127666666Y-94707419D02*
X127761904Y-94755038D01*
X127761904Y-94755038D02*
X127809523Y-94802657D01*
X127809523Y-94802657D02*
X127857142Y-94897895D01*
X127857142Y-94897895D02*
X127857142Y-94993133D01*
X127857142Y-94993133D02*
X127809523Y-95135990D01*
X127809523Y-95135990D02*
X127238095Y-95707419D01*
X127238095Y-95707419D02*
X127857142Y-95707419D01*
D10*
X166104819Y-86189107D02*
X165628628Y-86522440D01*
X166104819Y-86760535D02*
X165104819Y-86760535D01*
X165104819Y-86760535D02*
X165104819Y-86379583D01*
X165104819Y-86379583D02*
X165152438Y-86284345D01*
X165152438Y-86284345D02*
X165200057Y-86236726D01*
X165200057Y-86236726D02*
X165295295Y-86189107D01*
X165295295Y-86189107D02*
X165438152Y-86189107D01*
X165438152Y-86189107D02*
X165533390Y-86236726D01*
X165533390Y-86236726D02*
X165581009Y-86284345D01*
X165581009Y-86284345D02*
X165628628Y-86379583D01*
X165628628Y-86379583D02*
X165628628Y-86760535D01*
X166104819Y-85236726D02*
X166104819Y-85808154D01*
X166104819Y-85522440D02*
X165104819Y-85522440D01*
X165104819Y-85522440D02*
X165247676Y-85617678D01*
X165247676Y-85617678D02*
X165342914Y-85712916D01*
X165342914Y-85712916D02*
X165390533Y-85808154D01*
X165104819Y-84379583D02*
X165104819Y-84570059D01*
X165104819Y-84570059D02*
X165152438Y-84665297D01*
X165152438Y-84665297D02*
X165200057Y-84712916D01*
X165200057Y-84712916D02*
X165342914Y-84808154D01*
X165342914Y-84808154D02*
X165533390Y-84855773D01*
X165533390Y-84855773D02*
X165914342Y-84855773D01*
X165914342Y-84855773D02*
X166009580Y-84808154D01*
X166009580Y-84808154D02*
X166057200Y-84760535D01*
X166057200Y-84760535D02*
X166104819Y-84665297D01*
X166104819Y-84665297D02*
X166104819Y-84474821D01*
X166104819Y-84474821D02*
X166057200Y-84379583D01*
X166057200Y-84379583D02*
X166009580Y-84331964D01*
X166009580Y-84331964D02*
X165914342Y-84284345D01*
X165914342Y-84284345D02*
X165676247Y-84284345D01*
X165676247Y-84284345D02*
X165581009Y-84331964D01*
X165581009Y-84331964D02*
X165533390Y-84379583D01*
X165533390Y-84379583D02*
X165485771Y-84474821D01*
X165485771Y-84474821D02*
X165485771Y-84665297D01*
X165485771Y-84665297D02*
X165533390Y-84760535D01*
X165533390Y-84760535D02*
X165581009Y-84808154D01*
X165581009Y-84808154D02*
X165676247Y-84855773D01*
X162294819Y-86189107D02*
X161818628Y-86522440D01*
X162294819Y-86760535D02*
X161294819Y-86760535D01*
X161294819Y-86760535D02*
X161294819Y-86379583D01*
X161294819Y-86379583D02*
X161342438Y-86284345D01*
X161342438Y-86284345D02*
X161390057Y-86236726D01*
X161390057Y-86236726D02*
X161485295Y-86189107D01*
X161485295Y-86189107D02*
X161628152Y-86189107D01*
X161628152Y-86189107D02*
X161723390Y-86236726D01*
X161723390Y-86236726D02*
X161771009Y-86284345D01*
X161771009Y-86284345D02*
X161818628Y-86379583D01*
X161818628Y-86379583D02*
X161818628Y-86760535D01*
X162294819Y-85236726D02*
X162294819Y-85808154D01*
X162294819Y-85522440D02*
X161294819Y-85522440D01*
X161294819Y-85522440D02*
X161437676Y-85617678D01*
X161437676Y-85617678D02*
X161532914Y-85712916D01*
X161532914Y-85712916D02*
X161580533Y-85808154D01*
X161294819Y-84331964D02*
X161294819Y-84808154D01*
X161294819Y-84808154D02*
X161771009Y-84855773D01*
X161771009Y-84855773D02*
X161723390Y-84808154D01*
X161723390Y-84808154D02*
X161675771Y-84712916D01*
X161675771Y-84712916D02*
X161675771Y-84474821D01*
X161675771Y-84474821D02*
X161723390Y-84379583D01*
X161723390Y-84379583D02*
X161771009Y-84331964D01*
X161771009Y-84331964D02*
X161866247Y-84284345D01*
X161866247Y-84284345D02*
X162104342Y-84284345D01*
X162104342Y-84284345D02*
X162199580Y-84331964D01*
X162199580Y-84331964D02*
X162247200Y-84379583D01*
X162247200Y-84379583D02*
X162294819Y-84474821D01*
X162294819Y-84474821D02*
X162294819Y-84712916D01*
X162294819Y-84712916D02*
X162247200Y-84808154D01*
X162247200Y-84808154D02*
X162199580Y-84855773D01*
X154674819Y-86189107D02*
X154198628Y-86522440D01*
X154674819Y-86760535D02*
X153674819Y-86760535D01*
X153674819Y-86760535D02*
X153674819Y-86379583D01*
X153674819Y-86379583D02*
X153722438Y-86284345D01*
X153722438Y-86284345D02*
X153770057Y-86236726D01*
X153770057Y-86236726D02*
X153865295Y-86189107D01*
X153865295Y-86189107D02*
X154008152Y-86189107D01*
X154008152Y-86189107D02*
X154103390Y-86236726D01*
X154103390Y-86236726D02*
X154151009Y-86284345D01*
X154151009Y-86284345D02*
X154198628Y-86379583D01*
X154198628Y-86379583D02*
X154198628Y-86760535D01*
X154674819Y-85236726D02*
X154674819Y-85808154D01*
X154674819Y-85522440D02*
X153674819Y-85522440D01*
X153674819Y-85522440D02*
X153817676Y-85617678D01*
X153817676Y-85617678D02*
X153912914Y-85712916D01*
X153912914Y-85712916D02*
X153960533Y-85808154D01*
X153674819Y-84903392D02*
X153674819Y-84284345D01*
X153674819Y-84284345D02*
X154055771Y-84617678D01*
X154055771Y-84617678D02*
X154055771Y-84474821D01*
X154055771Y-84474821D02*
X154103390Y-84379583D01*
X154103390Y-84379583D02*
X154151009Y-84331964D01*
X154151009Y-84331964D02*
X154246247Y-84284345D01*
X154246247Y-84284345D02*
X154484342Y-84284345D01*
X154484342Y-84284345D02*
X154579580Y-84331964D01*
X154579580Y-84331964D02*
X154627200Y-84379583D01*
X154627200Y-84379583D02*
X154674819Y-84474821D01*
X154674819Y-84474821D02*
X154674819Y-84760535D01*
X154674819Y-84760535D02*
X154627200Y-84855773D01*
X154627200Y-84855773D02*
X154579580Y-84903392D01*
X173724819Y-86189107D02*
X173248628Y-86522440D01*
X173724819Y-86760535D02*
X172724819Y-86760535D01*
X172724819Y-86760535D02*
X172724819Y-86379583D01*
X172724819Y-86379583D02*
X172772438Y-86284345D01*
X172772438Y-86284345D02*
X172820057Y-86236726D01*
X172820057Y-86236726D02*
X172915295Y-86189107D01*
X172915295Y-86189107D02*
X173058152Y-86189107D01*
X173058152Y-86189107D02*
X173153390Y-86236726D01*
X173153390Y-86236726D02*
X173201009Y-86284345D01*
X173201009Y-86284345D02*
X173248628Y-86379583D01*
X173248628Y-86379583D02*
X173248628Y-86760535D01*
X173724819Y-85236726D02*
X173724819Y-85808154D01*
X173724819Y-85522440D02*
X172724819Y-85522440D01*
X172724819Y-85522440D02*
X172867676Y-85617678D01*
X172867676Y-85617678D02*
X172962914Y-85712916D01*
X172962914Y-85712916D02*
X173010533Y-85808154D01*
X173153390Y-84665297D02*
X173105771Y-84760535D01*
X173105771Y-84760535D02*
X173058152Y-84808154D01*
X173058152Y-84808154D02*
X172962914Y-84855773D01*
X172962914Y-84855773D02*
X172915295Y-84855773D01*
X172915295Y-84855773D02*
X172820057Y-84808154D01*
X172820057Y-84808154D02*
X172772438Y-84760535D01*
X172772438Y-84760535D02*
X172724819Y-84665297D01*
X172724819Y-84665297D02*
X172724819Y-84474821D01*
X172724819Y-84474821D02*
X172772438Y-84379583D01*
X172772438Y-84379583D02*
X172820057Y-84331964D01*
X172820057Y-84331964D02*
X172915295Y-84284345D01*
X172915295Y-84284345D02*
X172962914Y-84284345D01*
X172962914Y-84284345D02*
X173058152Y-84331964D01*
X173058152Y-84331964D02*
X173105771Y-84379583D01*
X173105771Y-84379583D02*
X173153390Y-84474821D01*
X173153390Y-84474821D02*
X173153390Y-84665297D01*
X173153390Y-84665297D02*
X173201009Y-84760535D01*
X173201009Y-84760535D02*
X173248628Y-84808154D01*
X173248628Y-84808154D02*
X173343866Y-84855773D01*
X173343866Y-84855773D02*
X173534342Y-84855773D01*
X173534342Y-84855773D02*
X173629580Y-84808154D01*
X173629580Y-84808154D02*
X173677200Y-84760535D01*
X173677200Y-84760535D02*
X173724819Y-84665297D01*
X173724819Y-84665297D02*
X173724819Y-84474821D01*
X173724819Y-84474821D02*
X173677200Y-84379583D01*
X173677200Y-84379583D02*
X173629580Y-84331964D01*
X173629580Y-84331964D02*
X173534342Y-84284345D01*
X173534342Y-84284345D02*
X173343866Y-84284345D01*
X173343866Y-84284345D02*
X173248628Y-84331964D01*
X173248628Y-84331964D02*
X173201009Y-84379583D01*
X173201009Y-84379583D02*
X173153390Y-84474821D01*
D12*
X155400476Y-95707419D02*
X155400476Y-94707419D01*
X155400476Y-94707419D02*
X155733809Y-95421704D01*
X155733809Y-95421704D02*
X156067142Y-94707419D01*
X156067142Y-94707419D02*
X156067142Y-95707419D01*
X157067142Y-95707419D02*
X156495714Y-95707419D01*
X156781428Y-95707419D02*
X156781428Y-94707419D01*
X156781428Y-94707419D02*
X156686190Y-94850276D01*
X156686190Y-94850276D02*
X156590952Y-94945514D01*
X156590952Y-94945514D02*
X156495714Y-94993133D01*
D10*
X124194819Y-85712916D02*
X123718628Y-86046249D01*
X124194819Y-86284344D02*
X123194819Y-86284344D01*
X123194819Y-86284344D02*
X123194819Y-85903392D01*
X123194819Y-85903392D02*
X123242438Y-85808154D01*
X123242438Y-85808154D02*
X123290057Y-85760535D01*
X123290057Y-85760535D02*
X123385295Y-85712916D01*
X123385295Y-85712916D02*
X123528152Y-85712916D01*
X123528152Y-85712916D02*
X123623390Y-85760535D01*
X123623390Y-85760535D02*
X123671009Y-85808154D01*
X123671009Y-85808154D02*
X123718628Y-85903392D01*
X123718628Y-85903392D02*
X123718628Y-86284344D01*
X123194819Y-84808154D02*
X123194819Y-85284344D01*
X123194819Y-85284344D02*
X123671009Y-85331963D01*
X123671009Y-85331963D02*
X123623390Y-85284344D01*
X123623390Y-85284344D02*
X123575771Y-85189106D01*
X123575771Y-85189106D02*
X123575771Y-84951011D01*
X123575771Y-84951011D02*
X123623390Y-84855773D01*
X123623390Y-84855773D02*
X123671009Y-84808154D01*
X123671009Y-84808154D02*
X123766247Y-84760535D01*
X123766247Y-84760535D02*
X124004342Y-84760535D01*
X124004342Y-84760535D02*
X124099580Y-84808154D01*
X124099580Y-84808154D02*
X124147200Y-84855773D01*
X124147200Y-84855773D02*
X124194819Y-84951011D01*
X124194819Y-84951011D02*
X124194819Y-85189106D01*
X124194819Y-85189106D02*
X124147200Y-85284344D01*
X124147200Y-85284344D02*
X124099580Y-85331963D01*
X143244819Y-86189107D02*
X142768628Y-86522440D01*
X143244819Y-86760535D02*
X142244819Y-86760535D01*
X142244819Y-86760535D02*
X142244819Y-86379583D01*
X142244819Y-86379583D02*
X142292438Y-86284345D01*
X142292438Y-86284345D02*
X142340057Y-86236726D01*
X142340057Y-86236726D02*
X142435295Y-86189107D01*
X142435295Y-86189107D02*
X142578152Y-86189107D01*
X142578152Y-86189107D02*
X142673390Y-86236726D01*
X142673390Y-86236726D02*
X142721009Y-86284345D01*
X142721009Y-86284345D02*
X142768628Y-86379583D01*
X142768628Y-86379583D02*
X142768628Y-86760535D01*
X143244819Y-85236726D02*
X143244819Y-85808154D01*
X143244819Y-85522440D02*
X142244819Y-85522440D01*
X142244819Y-85522440D02*
X142387676Y-85617678D01*
X142387676Y-85617678D02*
X142482914Y-85712916D01*
X142482914Y-85712916D02*
X142530533Y-85808154D01*
X142244819Y-84617678D02*
X142244819Y-84522440D01*
X142244819Y-84522440D02*
X142292438Y-84427202D01*
X142292438Y-84427202D02*
X142340057Y-84379583D01*
X142340057Y-84379583D02*
X142435295Y-84331964D01*
X142435295Y-84331964D02*
X142625771Y-84284345D01*
X142625771Y-84284345D02*
X142863866Y-84284345D01*
X142863866Y-84284345D02*
X143054342Y-84331964D01*
X143054342Y-84331964D02*
X143149580Y-84379583D01*
X143149580Y-84379583D02*
X143197200Y-84427202D01*
X143197200Y-84427202D02*
X143244819Y-84522440D01*
X143244819Y-84522440D02*
X143244819Y-84617678D01*
X143244819Y-84617678D02*
X143197200Y-84712916D01*
X143197200Y-84712916D02*
X143149580Y-84760535D01*
X143149580Y-84760535D02*
X143054342Y-84808154D01*
X143054342Y-84808154D02*
X142863866Y-84855773D01*
X142863866Y-84855773D02*
X142625771Y-84855773D01*
X142625771Y-84855773D02*
X142435295Y-84808154D01*
X142435295Y-84808154D02*
X142340057Y-84760535D01*
X142340057Y-84760535D02*
X142292438Y-84712916D01*
X142292438Y-84712916D02*
X142244819Y-84617678D01*
X120384819Y-85712916D02*
X119908628Y-86046249D01*
X120384819Y-86284344D02*
X119384819Y-86284344D01*
X119384819Y-86284344D02*
X119384819Y-85903392D01*
X119384819Y-85903392D02*
X119432438Y-85808154D01*
X119432438Y-85808154D02*
X119480057Y-85760535D01*
X119480057Y-85760535D02*
X119575295Y-85712916D01*
X119575295Y-85712916D02*
X119718152Y-85712916D01*
X119718152Y-85712916D02*
X119813390Y-85760535D01*
X119813390Y-85760535D02*
X119861009Y-85808154D01*
X119861009Y-85808154D02*
X119908628Y-85903392D01*
X119908628Y-85903392D02*
X119908628Y-86284344D01*
X119718152Y-84855773D02*
X120384819Y-84855773D01*
X119337200Y-85093868D02*
X120051485Y-85331963D01*
X120051485Y-85331963D02*
X120051485Y-84712916D01*
X128004819Y-85712916D02*
X127528628Y-86046249D01*
X128004819Y-86284344D02*
X127004819Y-86284344D01*
X127004819Y-86284344D02*
X127004819Y-85903392D01*
X127004819Y-85903392D02*
X127052438Y-85808154D01*
X127052438Y-85808154D02*
X127100057Y-85760535D01*
X127100057Y-85760535D02*
X127195295Y-85712916D01*
X127195295Y-85712916D02*
X127338152Y-85712916D01*
X127338152Y-85712916D02*
X127433390Y-85760535D01*
X127433390Y-85760535D02*
X127481009Y-85808154D01*
X127481009Y-85808154D02*
X127528628Y-85903392D01*
X127528628Y-85903392D02*
X127528628Y-86284344D01*
X127004819Y-84855773D02*
X127004819Y-85046249D01*
X127004819Y-85046249D02*
X127052438Y-85141487D01*
X127052438Y-85141487D02*
X127100057Y-85189106D01*
X127100057Y-85189106D02*
X127242914Y-85284344D01*
X127242914Y-85284344D02*
X127433390Y-85331963D01*
X127433390Y-85331963D02*
X127814342Y-85331963D01*
X127814342Y-85331963D02*
X127909580Y-85284344D01*
X127909580Y-85284344D02*
X127957200Y-85236725D01*
X127957200Y-85236725D02*
X128004819Y-85141487D01*
X128004819Y-85141487D02*
X128004819Y-84951011D01*
X128004819Y-84951011D02*
X127957200Y-84855773D01*
X127957200Y-84855773D02*
X127909580Y-84808154D01*
X127909580Y-84808154D02*
X127814342Y-84760535D01*
X127814342Y-84760535D02*
X127576247Y-84760535D01*
X127576247Y-84760535D02*
X127481009Y-84808154D01*
X127481009Y-84808154D02*
X127433390Y-84855773D01*
X127433390Y-84855773D02*
X127385771Y-84951011D01*
X127385771Y-84951011D02*
X127385771Y-85141487D01*
X127385771Y-85141487D02*
X127433390Y-85236725D01*
X127433390Y-85236725D02*
X127481009Y-85284344D01*
X127481009Y-85284344D02*
X127576247Y-85331963D01*
X169914819Y-86189107D02*
X169438628Y-86522440D01*
X169914819Y-86760535D02*
X168914819Y-86760535D01*
X168914819Y-86760535D02*
X168914819Y-86379583D01*
X168914819Y-86379583D02*
X168962438Y-86284345D01*
X168962438Y-86284345D02*
X169010057Y-86236726D01*
X169010057Y-86236726D02*
X169105295Y-86189107D01*
X169105295Y-86189107D02*
X169248152Y-86189107D01*
X169248152Y-86189107D02*
X169343390Y-86236726D01*
X169343390Y-86236726D02*
X169391009Y-86284345D01*
X169391009Y-86284345D02*
X169438628Y-86379583D01*
X169438628Y-86379583D02*
X169438628Y-86760535D01*
X169914819Y-85236726D02*
X169914819Y-85808154D01*
X169914819Y-85522440D02*
X168914819Y-85522440D01*
X168914819Y-85522440D02*
X169057676Y-85617678D01*
X169057676Y-85617678D02*
X169152914Y-85712916D01*
X169152914Y-85712916D02*
X169200533Y-85808154D01*
X168914819Y-84903392D02*
X168914819Y-84236726D01*
X168914819Y-84236726D02*
X169914819Y-84665297D01*
X131814819Y-85712916D02*
X131338628Y-86046249D01*
X131814819Y-86284344D02*
X130814819Y-86284344D01*
X130814819Y-86284344D02*
X130814819Y-85903392D01*
X130814819Y-85903392D02*
X130862438Y-85808154D01*
X130862438Y-85808154D02*
X130910057Y-85760535D01*
X130910057Y-85760535D02*
X131005295Y-85712916D01*
X131005295Y-85712916D02*
X131148152Y-85712916D01*
X131148152Y-85712916D02*
X131243390Y-85760535D01*
X131243390Y-85760535D02*
X131291009Y-85808154D01*
X131291009Y-85808154D02*
X131338628Y-85903392D01*
X131338628Y-85903392D02*
X131338628Y-86284344D01*
X130814819Y-85379582D02*
X130814819Y-84712916D01*
X130814819Y-84712916D02*
X131814819Y-85141487D01*
X177534819Y-86189107D02*
X177058628Y-86522440D01*
X177534819Y-86760535D02*
X176534819Y-86760535D01*
X176534819Y-86760535D02*
X176534819Y-86379583D01*
X176534819Y-86379583D02*
X176582438Y-86284345D01*
X176582438Y-86284345D02*
X176630057Y-86236726D01*
X176630057Y-86236726D02*
X176725295Y-86189107D01*
X176725295Y-86189107D02*
X176868152Y-86189107D01*
X176868152Y-86189107D02*
X176963390Y-86236726D01*
X176963390Y-86236726D02*
X177011009Y-86284345D01*
X177011009Y-86284345D02*
X177058628Y-86379583D01*
X177058628Y-86379583D02*
X177058628Y-86760535D01*
X177534819Y-85236726D02*
X177534819Y-85808154D01*
X177534819Y-85522440D02*
X176534819Y-85522440D01*
X176534819Y-85522440D02*
X176677676Y-85617678D01*
X176677676Y-85617678D02*
X176772914Y-85712916D01*
X176772914Y-85712916D02*
X176820533Y-85808154D01*
X177534819Y-84760535D02*
X177534819Y-84570059D01*
X177534819Y-84570059D02*
X177487200Y-84474821D01*
X177487200Y-84474821D02*
X177439580Y-84427202D01*
X177439580Y-84427202D02*
X177296723Y-84331964D01*
X177296723Y-84331964D02*
X177106247Y-84284345D01*
X177106247Y-84284345D02*
X176725295Y-84284345D01*
X176725295Y-84284345D02*
X176630057Y-84331964D01*
X176630057Y-84331964D02*
X176582438Y-84379583D01*
X176582438Y-84379583D02*
X176534819Y-84474821D01*
X176534819Y-84474821D02*
X176534819Y-84665297D01*
X176534819Y-84665297D02*
X176582438Y-84760535D01*
X176582438Y-84760535D02*
X176630057Y-84808154D01*
X176630057Y-84808154D02*
X176725295Y-84855773D01*
X176725295Y-84855773D02*
X176963390Y-84855773D01*
X176963390Y-84855773D02*
X177058628Y-84808154D01*
X177058628Y-84808154D02*
X177106247Y-84760535D01*
X177106247Y-84760535D02*
X177153866Y-84665297D01*
X177153866Y-84665297D02*
X177153866Y-84474821D01*
X177153866Y-84474821D02*
X177106247Y-84379583D01*
X177106247Y-84379583D02*
X177058628Y-84331964D01*
X177058628Y-84331964D02*
X176963390Y-84284345D01*
X147054819Y-86189107D02*
X146578628Y-86522440D01*
X147054819Y-86760535D02*
X146054819Y-86760535D01*
X146054819Y-86760535D02*
X146054819Y-86379583D01*
X146054819Y-86379583D02*
X146102438Y-86284345D01*
X146102438Y-86284345D02*
X146150057Y-86236726D01*
X146150057Y-86236726D02*
X146245295Y-86189107D01*
X146245295Y-86189107D02*
X146388152Y-86189107D01*
X146388152Y-86189107D02*
X146483390Y-86236726D01*
X146483390Y-86236726D02*
X146531009Y-86284345D01*
X146531009Y-86284345D02*
X146578628Y-86379583D01*
X146578628Y-86379583D02*
X146578628Y-86760535D01*
X147054819Y-85236726D02*
X147054819Y-85808154D01*
X147054819Y-85522440D02*
X146054819Y-85522440D01*
X146054819Y-85522440D02*
X146197676Y-85617678D01*
X146197676Y-85617678D02*
X146292914Y-85712916D01*
X146292914Y-85712916D02*
X146340533Y-85808154D01*
X147054819Y-84284345D02*
X147054819Y-84855773D01*
X147054819Y-84570059D02*
X146054819Y-84570059D01*
X146054819Y-84570059D02*
X146197676Y-84665297D01*
X146197676Y-84665297D02*
X146292914Y-84760535D01*
X146292914Y-84760535D02*
X146340533Y-84855773D01*
X157164819Y-118443333D02*
X157879104Y-118443333D01*
X157879104Y-118443333D02*
X158021961Y-118490952D01*
X158021961Y-118490952D02*
X158117200Y-118586190D01*
X158117200Y-118586190D02*
X158164819Y-118729047D01*
X158164819Y-118729047D02*
X158164819Y-118824285D01*
X157498152Y-117538571D02*
X158164819Y-117538571D01*
X157117200Y-117776666D02*
X157831485Y-118014761D01*
X157831485Y-118014761D02*
X157831485Y-117395714D01*
X112764819Y-85712916D02*
X112288628Y-86046249D01*
X112764819Y-86284344D02*
X111764819Y-86284344D01*
X111764819Y-86284344D02*
X111764819Y-85903392D01*
X111764819Y-85903392D02*
X111812438Y-85808154D01*
X111812438Y-85808154D02*
X111860057Y-85760535D01*
X111860057Y-85760535D02*
X111955295Y-85712916D01*
X111955295Y-85712916D02*
X112098152Y-85712916D01*
X112098152Y-85712916D02*
X112193390Y-85760535D01*
X112193390Y-85760535D02*
X112241009Y-85808154D01*
X112241009Y-85808154D02*
X112288628Y-85903392D01*
X112288628Y-85903392D02*
X112288628Y-86284344D01*
X111860057Y-85331963D02*
X111812438Y-85284344D01*
X111812438Y-85284344D02*
X111764819Y-85189106D01*
X111764819Y-85189106D02*
X111764819Y-84951011D01*
X111764819Y-84951011D02*
X111812438Y-84855773D01*
X111812438Y-84855773D02*
X111860057Y-84808154D01*
X111860057Y-84808154D02*
X111955295Y-84760535D01*
X111955295Y-84760535D02*
X112050533Y-84760535D01*
X112050533Y-84760535D02*
X112193390Y-84808154D01*
X112193390Y-84808154D02*
X112764819Y-85379582D01*
X112764819Y-85379582D02*
X112764819Y-84760535D01*
X135624819Y-85712916D02*
X135148628Y-86046249D01*
X135624819Y-86284344D02*
X134624819Y-86284344D01*
X134624819Y-86284344D02*
X134624819Y-85903392D01*
X134624819Y-85903392D02*
X134672438Y-85808154D01*
X134672438Y-85808154D02*
X134720057Y-85760535D01*
X134720057Y-85760535D02*
X134815295Y-85712916D01*
X134815295Y-85712916D02*
X134958152Y-85712916D01*
X134958152Y-85712916D02*
X135053390Y-85760535D01*
X135053390Y-85760535D02*
X135101009Y-85808154D01*
X135101009Y-85808154D02*
X135148628Y-85903392D01*
X135148628Y-85903392D02*
X135148628Y-86284344D01*
X135053390Y-85141487D02*
X135005771Y-85236725D01*
X135005771Y-85236725D02*
X134958152Y-85284344D01*
X134958152Y-85284344D02*
X134862914Y-85331963D01*
X134862914Y-85331963D02*
X134815295Y-85331963D01*
X134815295Y-85331963D02*
X134720057Y-85284344D01*
X134720057Y-85284344D02*
X134672438Y-85236725D01*
X134672438Y-85236725D02*
X134624819Y-85141487D01*
X134624819Y-85141487D02*
X134624819Y-84951011D01*
X134624819Y-84951011D02*
X134672438Y-84855773D01*
X134672438Y-84855773D02*
X134720057Y-84808154D01*
X134720057Y-84808154D02*
X134815295Y-84760535D01*
X134815295Y-84760535D02*
X134862914Y-84760535D01*
X134862914Y-84760535D02*
X134958152Y-84808154D01*
X134958152Y-84808154D02*
X135005771Y-84855773D01*
X135005771Y-84855773D02*
X135053390Y-84951011D01*
X135053390Y-84951011D02*
X135053390Y-85141487D01*
X135053390Y-85141487D02*
X135101009Y-85236725D01*
X135101009Y-85236725D02*
X135148628Y-85284344D01*
X135148628Y-85284344D02*
X135243866Y-85331963D01*
X135243866Y-85331963D02*
X135434342Y-85331963D01*
X135434342Y-85331963D02*
X135529580Y-85284344D01*
X135529580Y-85284344D02*
X135577200Y-85236725D01*
X135577200Y-85236725D02*
X135624819Y-85141487D01*
X135624819Y-85141487D02*
X135624819Y-84951011D01*
X135624819Y-84951011D02*
X135577200Y-84855773D01*
X135577200Y-84855773D02*
X135529580Y-84808154D01*
X135529580Y-84808154D02*
X135434342Y-84760535D01*
X135434342Y-84760535D02*
X135243866Y-84760535D01*
X135243866Y-84760535D02*
X135148628Y-84808154D01*
X135148628Y-84808154D02*
X135101009Y-84855773D01*
X135101009Y-84855773D02*
X135053390Y-84951011D01*
X158484819Y-86189107D02*
X158008628Y-86522440D01*
X158484819Y-86760535D02*
X157484819Y-86760535D01*
X157484819Y-86760535D02*
X157484819Y-86379583D01*
X157484819Y-86379583D02*
X157532438Y-86284345D01*
X157532438Y-86284345D02*
X157580057Y-86236726D01*
X157580057Y-86236726D02*
X157675295Y-86189107D01*
X157675295Y-86189107D02*
X157818152Y-86189107D01*
X157818152Y-86189107D02*
X157913390Y-86236726D01*
X157913390Y-86236726D02*
X157961009Y-86284345D01*
X157961009Y-86284345D02*
X158008628Y-86379583D01*
X158008628Y-86379583D02*
X158008628Y-86760535D01*
X158484819Y-85236726D02*
X158484819Y-85808154D01*
X158484819Y-85522440D02*
X157484819Y-85522440D01*
X157484819Y-85522440D02*
X157627676Y-85617678D01*
X157627676Y-85617678D02*
X157722914Y-85712916D01*
X157722914Y-85712916D02*
X157770533Y-85808154D01*
X157818152Y-84379583D02*
X158484819Y-84379583D01*
X157437200Y-84617678D02*
X158151485Y-84855773D01*
X158151485Y-84855773D02*
X158151485Y-84236726D01*
X150864819Y-86189107D02*
X150388628Y-86522440D01*
X150864819Y-86760535D02*
X149864819Y-86760535D01*
X149864819Y-86760535D02*
X149864819Y-86379583D01*
X149864819Y-86379583D02*
X149912438Y-86284345D01*
X149912438Y-86284345D02*
X149960057Y-86236726D01*
X149960057Y-86236726D02*
X150055295Y-86189107D01*
X150055295Y-86189107D02*
X150198152Y-86189107D01*
X150198152Y-86189107D02*
X150293390Y-86236726D01*
X150293390Y-86236726D02*
X150341009Y-86284345D01*
X150341009Y-86284345D02*
X150388628Y-86379583D01*
X150388628Y-86379583D02*
X150388628Y-86760535D01*
X150864819Y-85236726D02*
X150864819Y-85808154D01*
X150864819Y-85522440D02*
X149864819Y-85522440D01*
X149864819Y-85522440D02*
X150007676Y-85617678D01*
X150007676Y-85617678D02*
X150102914Y-85712916D01*
X150102914Y-85712916D02*
X150150533Y-85808154D01*
X149960057Y-84855773D02*
X149912438Y-84808154D01*
X149912438Y-84808154D02*
X149864819Y-84712916D01*
X149864819Y-84712916D02*
X149864819Y-84474821D01*
X149864819Y-84474821D02*
X149912438Y-84379583D01*
X149912438Y-84379583D02*
X149960057Y-84331964D01*
X149960057Y-84331964D02*
X150055295Y-84284345D01*
X150055295Y-84284345D02*
X150150533Y-84284345D01*
X150150533Y-84284345D02*
X150293390Y-84331964D01*
X150293390Y-84331964D02*
X150864819Y-84903392D01*
X150864819Y-84903392D02*
X150864819Y-84284345D01*
X157164819Y-67643333D02*
X157879104Y-67643333D01*
X157879104Y-67643333D02*
X158021961Y-67690952D01*
X158021961Y-67690952D02*
X158117200Y-67786190D01*
X158117200Y-67786190D02*
X158164819Y-67929047D01*
X158164819Y-67929047D02*
X158164819Y-68024285D01*
X157164819Y-67262380D02*
X157164819Y-66643333D01*
X157164819Y-66643333D02*
X157545771Y-66976666D01*
X157545771Y-66976666D02*
X157545771Y-66833809D01*
X157545771Y-66833809D02*
X157593390Y-66738571D01*
X157593390Y-66738571D02*
X157641009Y-66690952D01*
X157641009Y-66690952D02*
X157736247Y-66643333D01*
X157736247Y-66643333D02*
X157974342Y-66643333D01*
X157974342Y-66643333D02*
X158069580Y-66690952D01*
X158069580Y-66690952D02*
X158117200Y-66738571D01*
X158117200Y-66738571D02*
X158164819Y-66833809D01*
X158164819Y-66833809D02*
X158164819Y-67119523D01*
X158164819Y-67119523D02*
X158117200Y-67214761D01*
X158117200Y-67214761D02*
X158069580Y-67262380D01*
D12*
X96980476Y-95707419D02*
X96980476Y-94707419D01*
X96980476Y-94707419D02*
X97313809Y-95421704D01*
X97313809Y-95421704D02*
X97647142Y-94707419D01*
X97647142Y-94707419D02*
X97647142Y-95707419D01*
X98028095Y-94707419D02*
X98647142Y-94707419D01*
X98647142Y-94707419D02*
X98313809Y-95088371D01*
X98313809Y-95088371D02*
X98456666Y-95088371D01*
X98456666Y-95088371D02*
X98551904Y-95135990D01*
X98551904Y-95135990D02*
X98599523Y-95183609D01*
X98599523Y-95183609D02*
X98647142Y-95278847D01*
X98647142Y-95278847D02*
X98647142Y-95516942D01*
X98647142Y-95516942D02*
X98599523Y-95612180D01*
X98599523Y-95612180D02*
X98551904Y-95659800D01*
X98551904Y-95659800D02*
X98456666Y-95707419D01*
X98456666Y-95707419D02*
X98170952Y-95707419D01*
X98170952Y-95707419D02*
X98075714Y-95659800D01*
X98075714Y-95659800D02*
X98028095Y-95612180D01*
D10*
X139434819Y-85712916D02*
X138958628Y-86046249D01*
X139434819Y-86284344D02*
X138434819Y-86284344D01*
X138434819Y-86284344D02*
X138434819Y-85903392D01*
X138434819Y-85903392D02*
X138482438Y-85808154D01*
X138482438Y-85808154D02*
X138530057Y-85760535D01*
X138530057Y-85760535D02*
X138625295Y-85712916D01*
X138625295Y-85712916D02*
X138768152Y-85712916D01*
X138768152Y-85712916D02*
X138863390Y-85760535D01*
X138863390Y-85760535D02*
X138911009Y-85808154D01*
X138911009Y-85808154D02*
X138958628Y-85903392D01*
X138958628Y-85903392D02*
X138958628Y-86284344D01*
X139434819Y-85236725D02*
X139434819Y-85046249D01*
X139434819Y-85046249D02*
X139387200Y-84951011D01*
X139387200Y-84951011D02*
X139339580Y-84903392D01*
X139339580Y-84903392D02*
X139196723Y-84808154D01*
X139196723Y-84808154D02*
X139006247Y-84760535D01*
X139006247Y-84760535D02*
X138625295Y-84760535D01*
X138625295Y-84760535D02*
X138530057Y-84808154D01*
X138530057Y-84808154D02*
X138482438Y-84855773D01*
X138482438Y-84855773D02*
X138434819Y-84951011D01*
X138434819Y-84951011D02*
X138434819Y-85141487D01*
X138434819Y-85141487D02*
X138482438Y-85236725D01*
X138482438Y-85236725D02*
X138530057Y-85284344D01*
X138530057Y-85284344D02*
X138625295Y-85331963D01*
X138625295Y-85331963D02*
X138863390Y-85331963D01*
X138863390Y-85331963D02*
X138958628Y-85284344D01*
X138958628Y-85284344D02*
X139006247Y-85236725D01*
X139006247Y-85236725D02*
X139053866Y-85141487D01*
X139053866Y-85141487D02*
X139053866Y-84951011D01*
X139053866Y-84951011D02*
X139006247Y-84855773D01*
X139006247Y-84855773D02*
X138958628Y-84808154D01*
X138958628Y-84808154D02*
X138863390Y-84760535D01*
X116574819Y-85712916D02*
X116098628Y-86046249D01*
X116574819Y-86284344D02*
X115574819Y-86284344D01*
X115574819Y-86284344D02*
X115574819Y-85903392D01*
X115574819Y-85903392D02*
X115622438Y-85808154D01*
X115622438Y-85808154D02*
X115670057Y-85760535D01*
X115670057Y-85760535D02*
X115765295Y-85712916D01*
X115765295Y-85712916D02*
X115908152Y-85712916D01*
X115908152Y-85712916D02*
X116003390Y-85760535D01*
X116003390Y-85760535D02*
X116051009Y-85808154D01*
X116051009Y-85808154D02*
X116098628Y-85903392D01*
X116098628Y-85903392D02*
X116098628Y-86284344D01*
X115574819Y-85379582D02*
X115574819Y-84760535D01*
X115574819Y-84760535D02*
X115955771Y-85093868D01*
X115955771Y-85093868D02*
X115955771Y-84951011D01*
X115955771Y-84951011D02*
X116003390Y-84855773D01*
X116003390Y-84855773D02*
X116051009Y-84808154D01*
X116051009Y-84808154D02*
X116146247Y-84760535D01*
X116146247Y-84760535D02*
X116384342Y-84760535D01*
X116384342Y-84760535D02*
X116479580Y-84808154D01*
X116479580Y-84808154D02*
X116527200Y-84855773D01*
X116527200Y-84855773D02*
X116574819Y-84951011D01*
X116574819Y-84951011D02*
X116574819Y-85236725D01*
X116574819Y-85236725D02*
X116527200Y-85331963D01*
X116527200Y-85331963D02*
X116479580Y-85379582D01*
D13*
%TO.C,R1*%
X107590000Y-84819186D02*
X107590000Y-86273314D01*
X105770000Y-84819186D02*
X105770000Y-86273314D01*
D12*
%TO.C,M2*%
X124460000Y-97611250D02*
X132080000Y-97611250D01*
X132080000Y-97611250D02*
X132080000Y-100151250D01*
X132080000Y-100151250D02*
X124460000Y-100151250D01*
X124460000Y-100151250D02*
X124460000Y-97611250D01*
X124460000Y-97611250D02*
X152400000Y-97611250D01*
X152400000Y-97611250D02*
X152400000Y-110311250D01*
X152400000Y-110311250D02*
X124460000Y-110311250D01*
X124460000Y-110311250D02*
X124460000Y-97611250D01*
X127000000Y-107771250D02*
X134620000Y-107771250D01*
X134620000Y-107771250D02*
X134620000Y-110311250D01*
X134620000Y-110311250D02*
X127000000Y-110311250D01*
X127000000Y-110311250D02*
X127000000Y-107771250D01*
X132080000Y-97611250D02*
X152400000Y-97611250D01*
X152400000Y-97611250D02*
X152400000Y-100151250D01*
X152400000Y-100151250D02*
X132080000Y-100151250D01*
X132080000Y-100151250D02*
X132080000Y-97611250D01*
D13*
%TO.C,R16*%
X164740000Y-84819186D02*
X164740000Y-86273314D01*
X162920000Y-84819186D02*
X162920000Y-86273314D01*
%TO.C,R15*%
X160930000Y-84819186D02*
X160930000Y-86273314D01*
X159110000Y-84819186D02*
X159110000Y-86273314D01*
%TO.C,R13*%
X153310000Y-84819186D02*
X153310000Y-86273314D01*
X151490000Y-84819186D02*
X151490000Y-86273314D01*
%TO.C,R18*%
X172360000Y-84819186D02*
X172360000Y-86273314D01*
X170540000Y-84819186D02*
X170540000Y-86273314D01*
D12*
%TO.C,M1*%
X153670000Y-97611250D02*
X161290000Y-97611250D01*
X161290000Y-97611250D02*
X161290000Y-100151250D01*
X161290000Y-100151250D02*
X153670000Y-100151250D01*
X153670000Y-100151250D02*
X153670000Y-97611250D01*
X153670000Y-97611250D02*
X181610000Y-97611250D01*
X181610000Y-97611250D02*
X181610000Y-110311250D01*
X181610000Y-110311250D02*
X153670000Y-110311250D01*
X153670000Y-110311250D02*
X153670000Y-97611250D01*
X156210000Y-107771250D02*
X163830000Y-107771250D01*
X163830000Y-107771250D02*
X163830000Y-110311250D01*
X163830000Y-110311250D02*
X156210000Y-110311250D01*
X156210000Y-110311250D02*
X156210000Y-107771250D01*
X161290000Y-97611250D02*
X181610000Y-97611250D01*
X181610000Y-97611250D02*
X181610000Y-100151250D01*
X181610000Y-100151250D02*
X161290000Y-100151250D01*
X161290000Y-100151250D02*
X161290000Y-97611250D01*
D13*
%TO.C,R5*%
X122830000Y-84819186D02*
X122830000Y-86273314D01*
X121010000Y-84819186D02*
X121010000Y-86273314D01*
%TO.C,R10*%
X141880000Y-84819186D02*
X141880000Y-86273314D01*
X140060000Y-84819186D02*
X140060000Y-86273314D01*
%TO.C,R4*%
X119020000Y-84819186D02*
X119020000Y-86273314D01*
X117200000Y-84819186D02*
X117200000Y-86273314D01*
%TO.C,R6*%
X126640000Y-84819186D02*
X126640000Y-86273314D01*
X124820000Y-84819186D02*
X124820000Y-86273314D01*
%TO.C,R17*%
X168550000Y-84819186D02*
X168550000Y-86273314D01*
X166730000Y-84819186D02*
X166730000Y-86273314D01*
%TO.C,R7*%
X130450000Y-84819186D02*
X130450000Y-86273314D01*
X128630000Y-84819186D02*
X128630000Y-86273314D01*
%TO.C,R19*%
X176170000Y-84819186D02*
X176170000Y-86273314D01*
X174350000Y-84819186D02*
X174350000Y-86273314D01*
%TO.C,R11*%
X145690000Y-84819186D02*
X145690000Y-86273314D01*
X143870000Y-84819186D02*
X143870000Y-86273314D01*
%TO.C,J4*%
X156270000Y-115510000D02*
X92650000Y-115510000D01*
X156270000Y-115510000D02*
X156270000Y-118110000D01*
X92650000Y-115510000D02*
X92650000Y-120710000D01*
X156270000Y-118110000D02*
X153670000Y-118110000D01*
X153670000Y-118110000D02*
X153670000Y-120710000D01*
X156270000Y-119380000D02*
X156270000Y-120710000D01*
X156270000Y-120710000D02*
X154940000Y-120710000D01*
X153670000Y-120710000D02*
X92650000Y-120710000D01*
%TO.C,R2*%
X111400000Y-84819186D02*
X111400000Y-86273314D01*
X109580000Y-84819186D02*
X109580000Y-86273314D01*
%TO.C,R8*%
X134260000Y-84819186D02*
X134260000Y-86273314D01*
X132440000Y-84819186D02*
X132440000Y-86273314D01*
%TO.C,R14*%
X157120000Y-84819186D02*
X157120000Y-86273314D01*
X155300000Y-84819186D02*
X155300000Y-86273314D01*
%TO.C,R12*%
X149500000Y-84819186D02*
X149500000Y-86273314D01*
X147680000Y-84819186D02*
X147680000Y-86273314D01*
%TO.C,J3*%
X156270000Y-64710000D02*
X92650000Y-64710000D01*
X156270000Y-64710000D02*
X156270000Y-67310000D01*
X92650000Y-64710000D02*
X92650000Y-69910000D01*
X156270000Y-67310000D02*
X153670000Y-67310000D01*
X153670000Y-67310000D02*
X153670000Y-69910000D01*
X156270000Y-68580000D02*
X156270000Y-69910000D01*
X156270000Y-69910000D02*
X154940000Y-69910000D01*
X153670000Y-69910000D02*
X92650000Y-69910000D01*
D12*
%TO.C,M3*%
X95250000Y-97611250D02*
X102870000Y-97611250D01*
X102870000Y-97611250D02*
X102870000Y-100151250D01*
X102870000Y-100151250D02*
X95250000Y-100151250D01*
X95250000Y-100151250D02*
X95250000Y-97611250D01*
X95250000Y-97611250D02*
X123190000Y-97611250D01*
X123190000Y-97611250D02*
X123190000Y-110311250D01*
X123190000Y-110311250D02*
X95250000Y-110311250D01*
X95250000Y-110311250D02*
X95250000Y-97611250D01*
X97790000Y-107771250D02*
X105410000Y-107771250D01*
X105410000Y-107771250D02*
X105410000Y-110311250D01*
X105410000Y-110311250D02*
X97790000Y-110311250D01*
X97790000Y-110311250D02*
X97790000Y-107771250D01*
X102870000Y-97611250D02*
X123190000Y-97611250D01*
X123190000Y-97611250D02*
X123190000Y-100151250D01*
X123190000Y-100151250D02*
X102870000Y-100151250D01*
X102870000Y-100151250D02*
X102870000Y-97611250D01*
D13*
%TO.C,R9*%
X138070000Y-84819186D02*
X138070000Y-86273314D01*
X136250000Y-84819186D02*
X136250000Y-86273314D01*
%TO.C,R3*%
X115210000Y-84819186D02*
X115210000Y-86273314D01*
X113390000Y-84819186D02*
X113390000Y-86273314D01*
%TD*%
M02*
