%TF.GenerationSoftware,KiCad,Pcbnew,7.0.9*%
%TF.CreationDate,2024-01-15T11:44:11+01:00*%
%TF.ProjectId,pltka_inz,706c746b-615f-4696-9e7a-2e6b69636164,rev?*%
%TF.SameCoordinates,Original*%
%TF.FileFunction,Copper,L1,Top*%
%TF.FilePolarity,Positive*%
%FSLAX46Y46*%
G04 Gerber Fmt 4.6, Leading zero omitted, Abs format (unit mm)*
G04 Created by KiCad (PCBNEW 7.0.9) date 2024-01-15 11:44:11*
%MOMM*%
%LPD*%
G01*
G04 APERTURE LIST*
G04 Aperture macros list*
%AMRoundRect*
0 Rectangle with rounded corners*
0 $1 Rounding radius*
0 $2 $3 $4 $5 $6 $7 $8 $9 X,Y pos of 4 corners*
0 Add a 4 corners polygon primitive as box body*
4,1,4,$2,$3,$4,$5,$6,$7,$8,$9,$2,$3,0*
0 Add four circle primitives for the rounded corners*
1,1,$1+$1,$2,$3*
1,1,$1+$1,$4,$5*
1,1,$1+$1,$6,$7*
1,1,$1+$1,$8,$9*
0 Add four rect primitives between the rounded corners*
20,1,$1+$1,$2,$3,$4,$5,0*
20,1,$1+$1,$4,$5,$6,$7,0*
20,1,$1+$1,$6,$7,$8,$9,0*
20,1,$1+$1,$8,$9,$2,$3,0*%
G04 Aperture macros list end*
%TA.AperFunction,SMDPad,CuDef*%
%ADD10RoundRect,0.250000X-0.625000X0.400000X-0.625000X-0.400000X0.625000X-0.400000X0.625000X0.400000X0*%
%TD*%
%TA.AperFunction,ComponentPad*%
%ADD11C,1.879600*%
%TD*%
%TA.AperFunction,ComponentPad*%
%ADD12R,1.700000X1.700000*%
%TD*%
%TA.AperFunction,ComponentPad*%
%ADD13O,1.700000X1.700000*%
%TD*%
%TA.AperFunction,ViaPad*%
%ADD14C,0.750000*%
%TD*%
%TA.AperFunction,Conductor*%
%ADD15C,1.000000*%
%TD*%
%TA.AperFunction,Conductor*%
%ADD16C,0.800000*%
%TD*%
G04 APERTURE END LIST*
D10*
%TO.P,R1,1*%
%TO.N,11*%
X106680000Y-83996250D03*
%TO.P,R1,2*%
%TO.N,GND*%
X106680000Y-87096250D03*
%TD*%
D11*
%TO.P,M2,1,VEE*%
%TO.N,unconnected-(M2-VEE-Pad1)*%
X125730000Y-98881250D03*
%TO.P,M2,2,VCC*%
%TO.N,unconnected-(M2-VCC-Pad2)*%
X128270000Y-98881250D03*
%TO.P,M2,3,GND*%
%TO.N,unconnected-(M2-GND-Pad3)*%
X130810000Y-98881250D03*
%TO.P,M2,4,Y0*%
%TO.N,unconnected-(M2-Y0-Pad4)*%
X133350000Y-98881250D03*
%TO.P,M2,5,Y1*%
%TO.N,21*%
X135890000Y-98881250D03*
%TO.P,M2,6,Y2*%
%TO.N,22*%
X138430000Y-98881250D03*
%TO.P,M2,7,Y3*%
%TO.N,23*%
X140970000Y-98881250D03*
%TO.P,M2,8,Y4*%
%TO.N,31*%
X143510000Y-98881250D03*
%TO.P,M2,9,Y5*%
%TO.N,32*%
X146050000Y-98881250D03*
%TO.P,M2,10,Y6*%
%TO.N,33*%
X148590000Y-98881250D03*
%TO.P,M2,11,Y7*%
%TO.N,unconnected-(M2-Y7-Pad11)*%
X151130000Y-98881250D03*
%TO.P,M2,12,VEE*%
%TO.N,unconnected-(M2-VEE-Pad12)*%
X128270000Y-109041250D03*
%TO.P,M2,13,VCC*%
%TO.N,VCC*%
X130810000Y-109041250D03*
%TO.P,M2,14,GND*%
%TO.N,GND*%
X133350000Y-109041250D03*
%TO.P,M2,15,Z*%
%TO.N,PB1*%
X135890000Y-109041250D03*
%TO.P,M2,16,S0*%
%TO.N,PE10*%
X138430000Y-109041250D03*
%TO.P,M2,17,S1*%
%TO.N,PE11*%
X140970000Y-109041250D03*
%TO.P,M2,18,S2*%
%TO.N,PE12*%
X143510000Y-109041250D03*
%TO.P,M2,19,E*%
%TO.N,unconnected-(M2-E-Pad19)*%
X146050000Y-109041250D03*
%TD*%
D10*
%TO.P,R16,1*%
%TO.N,43*%
X163830000Y-83996250D03*
%TO.P,R16,2*%
%TO.N,GND*%
X163830000Y-87096250D03*
%TD*%
%TO.P,R15,1*%
%TO.N,42*%
X160020000Y-83996250D03*
%TO.P,R15,2*%
%TO.N,GND*%
X160020000Y-87096250D03*
%TD*%
%TO.P,R13,1*%
%TO.N,33*%
X152400000Y-83996250D03*
%TO.P,R13,2*%
%TO.N,GND*%
X152400000Y-87096250D03*
%TD*%
%TO.P,R18,1*%
%TO.N,52*%
X171450000Y-83996250D03*
%TO.P,R18,2*%
%TO.N,GND*%
X171450000Y-87096250D03*
%TD*%
D11*
%TO.P,M1,1,VEE*%
%TO.N,unconnected-(M1-VEE-Pad1)*%
X154940000Y-98881250D03*
%TO.P,M1,2,VCC*%
%TO.N,unconnected-(M1-VCC-Pad2)*%
X157480000Y-98881250D03*
%TO.P,M1,3,GND*%
%TO.N,unconnected-(M1-GND-Pad3)*%
X160020000Y-98881250D03*
%TO.P,M1,4,Y0*%
%TO.N,unconnected-(M1-Y0-Pad4)*%
X162560000Y-98881250D03*
%TO.P,M1,5,Y1*%
%TO.N,41*%
X165100000Y-98881250D03*
%TO.P,M1,6,Y2*%
%TO.N,42*%
X167640000Y-98881250D03*
%TO.P,M1,7,Y3*%
%TO.N,43*%
X170180000Y-98881250D03*
%TO.P,M1,8,Y4*%
%TO.N,51*%
X172720000Y-98881250D03*
%TO.P,M1,9,Y5*%
%TO.N,52*%
X175260000Y-98881250D03*
%TO.P,M1,10,Y6*%
%TO.N,53*%
X177800000Y-98881250D03*
%TO.P,M1,11,Y7*%
%TO.N,unconnected-(M1-Y7-Pad11)*%
X180340000Y-98881250D03*
%TO.P,M1,12,VEE*%
%TO.N,unconnected-(M1-VEE-Pad12)*%
X157480000Y-109041250D03*
%TO.P,M1,13,VCC*%
%TO.N,VCC*%
X160020000Y-109041250D03*
%TO.P,M1,14,GND*%
%TO.N,GND*%
X162560000Y-109041250D03*
%TO.P,M1,15,Z*%
%TO.N,PC1*%
X165100000Y-109041250D03*
%TO.P,M1,16,S0*%
%TO.N,PE7*%
X167640000Y-109041250D03*
%TO.P,M1,17,S1*%
%TO.N,PE8*%
X170180000Y-109041250D03*
%TO.P,M1,18,S2*%
%TO.N,PE9*%
X172720000Y-109041250D03*
%TO.P,M1,19,E*%
%TO.N,unconnected-(M1-E-Pad19)*%
X175260000Y-109041250D03*
%TD*%
D10*
%TO.P,R5,1*%
%TO.N,15*%
X121920000Y-83996250D03*
%TO.P,R5,2*%
%TO.N,GND*%
X121920000Y-87096250D03*
%TD*%
%TO.P,R10,1*%
%TO.N,23*%
X140970000Y-83996250D03*
%TO.P,R10,2*%
%TO.N,GND*%
X140970000Y-87096250D03*
%TD*%
%TO.P,R4,1*%
%TO.N,14*%
X118110000Y-83996250D03*
%TO.P,R4,2*%
%TO.N,GND*%
X118110000Y-87096250D03*
%TD*%
%TO.P,R6,1*%
%TO.N,16*%
X125730000Y-83996250D03*
%TO.P,R6,2*%
%TO.N,GND*%
X125730000Y-87096250D03*
%TD*%
%TO.P,R17,1*%
%TO.N,51*%
X167640000Y-83996250D03*
%TO.P,R17,2*%
%TO.N,GND*%
X167640000Y-87096250D03*
%TD*%
%TO.P,R7,1*%
%TO.N,17*%
X129540000Y-83996250D03*
%TO.P,R7,2*%
%TO.N,GND*%
X129540000Y-87096250D03*
%TD*%
%TO.P,R19,1*%
%TO.N,53*%
X175260000Y-83996250D03*
%TO.P,R19,2*%
%TO.N,GND*%
X175260000Y-87096250D03*
%TD*%
%TO.P,R11,1*%
%TO.N,31*%
X144780000Y-83996250D03*
%TO.P,R11,2*%
%TO.N,GND*%
X144780000Y-87096250D03*
%TD*%
D11*
%TO.P,J1,1,Pin_1*%
%TO.N,VCC*%
X105410000Y-74751250D03*
%TO.P,J1,2,Pin_2*%
X109220000Y-74751250D03*
%TO.P,J1,3,Pin_3*%
X113030000Y-74751250D03*
%TO.P,J1,4,Pin_4*%
X116840000Y-74751250D03*
%TO.P,J1,5,Pin_5*%
X120650000Y-74751250D03*
%TO.P,J1,6,Pin_6*%
X124460000Y-74751250D03*
%TO.P,J1,7,Pin_7*%
X128270000Y-74751250D03*
%TO.P,J1,8,Pin_8*%
X132080000Y-74751250D03*
%TO.P,J1,9,Pin_9*%
X135890000Y-74751250D03*
%TO.P,J1,10,Pin_10*%
X139700000Y-74751250D03*
%TO.P,J1,11,Pin_11*%
X143510000Y-74751250D03*
%TO.P,J1,12,Pin_12*%
X147320000Y-74751250D03*
%TO.P,J1,13,Pin_13*%
X151130000Y-74751250D03*
%TO.P,J1,14,Pin_14*%
X154940000Y-74751250D03*
%TO.P,J1,15,Pin_15*%
X158750000Y-74751250D03*
%TO.P,J1,16,Pin_16*%
X162560000Y-74751250D03*
%TO.P,J1,17,Pin_17*%
X166370000Y-74751250D03*
%TO.P,J1,18,Pin_18*%
X170180000Y-74751250D03*
%TO.P,J1,19,Pin_19*%
X173990000Y-74751250D03*
%TD*%
D12*
%TO.P,J4,1,Pin_1*%
%TO.N,unconnected-(J4-Pin_1-Pad1)*%
X154940000Y-119380000D03*
D13*
%TO.P,J4,2,Pin_2*%
%TO.N,GND*%
X154940000Y-116840000D03*
%TO.P,J4,3,Pin_3*%
%TO.N,unconnected-(J4-Pin_3-Pad3)*%
X152400000Y-119380000D03*
%TO.P,J4,4,Pin_4*%
%TO.N,unconnected-(J4-Pin_4-Pad4)*%
X152400000Y-116840000D03*
%TO.P,J4,5,Pin_5*%
%TO.N,unconnected-(J4-Pin_5-Pad5)*%
X149860000Y-119380000D03*
%TO.P,J4,6,Pin_6*%
%TO.N,unconnected-(J4-Pin_6-Pad6)*%
X149860000Y-116840000D03*
%TO.P,J4,7,Pin_7*%
%TO.N,PC1*%
X147320000Y-119380000D03*
%TO.P,J4,9,Pin_9*%
%TO.N,unconnected-(J4-Pin_9-Pad9)*%
X144780000Y-119380000D03*
%TO.P,J4,11,Pin_11*%
%TO.N,unconnected-(J4-Pin_11-Pad11)*%
X142240000Y-119380000D03*
%TO.P,J4,13,Pin_13*%
%TO.N,unconnected-(J4-Pin_13-Pad13)*%
X139700000Y-119380000D03*
%TO.P,J4,14,Pin_14*%
%TO.N,unconnected-(J4-Pin_14-Pad14)*%
X139700000Y-116840000D03*
%TO.P,J4,21,Pin_21*%
%TO.N,PB1*%
X129540000Y-119380000D03*
%TO.P,J4,22,Pin_22*%
%TO.N,PB0*%
X129540000Y-116840000D03*
%TO.P,J4,23,Pin_23*%
%TO.N,unconnected-(J4-Pin_23-Pad23)*%
X127000000Y-119380000D03*
%TO.P,J4,24,Pin_24*%
%TO.N,unconnected-(J4-Pin_24-Pad24)*%
X127000000Y-116840000D03*
%TO.P,J4,25,Pin_25*%
%TO.N,PE7*%
X124460000Y-119380000D03*
%TO.P,J4,26,Pin_26*%
%TO.N,PE8*%
X124460000Y-116840000D03*
%TO.P,J4,27,Pin_27*%
%TO.N,PE9*%
X121920000Y-119380000D03*
%TO.P,J4,28,Pin_28*%
%TO.N,PE10*%
X121920000Y-116840000D03*
%TO.P,J4,29,Pin_29*%
%TO.N,PE11*%
X119380000Y-119380000D03*
%TO.P,J4,30,Pin_30*%
%TO.N,PE12*%
X119380000Y-116840000D03*
%TO.P,J4,31,Pin_31*%
%TO.N,PE13*%
X116840000Y-119380000D03*
%TO.P,J4,32,Pin_32*%
%TO.N,PE14*%
X116840000Y-116840000D03*
%TO.P,J4,33,Pin_33*%
%TO.N,PE15*%
X114300000Y-119380000D03*
%TO.P,J4,34,Pin_34*%
%TO.N,unconnected-(J4-Pin_34-Pad34)*%
X114300000Y-116840000D03*
%TO.P,J4,45,Pin_45*%
%TO.N,unconnected-(J4-Pin_45-Pad45)*%
X99060000Y-119380000D03*
%TO.P,J4,46,Pin_46*%
%TO.N,unconnected-(J4-Pin_46-Pad46)*%
X99060000Y-116840000D03*
%TO.P,J4,47,Pin_47*%
%TO.N,unconnected-(J4-Pin_47-Pad47)*%
X96520000Y-119380000D03*
%TO.P,J4,48,Pin_48*%
%TO.N,unconnected-(J4-Pin_48-Pad48)*%
X96520000Y-116840000D03*
%TO.P,J4,49,Pin_49*%
%TO.N,unconnected-(J4-Pin_49-Pad49)*%
X93980000Y-119380000D03*
%TO.P,J4,50,Pin_50*%
%TO.N,unconnected-(J4-Pin_50-Pad50)*%
X93980000Y-116840000D03*
%TD*%
D10*
%TO.P,R2,1*%
%TO.N,12*%
X110490000Y-83996250D03*
%TO.P,R2,2*%
%TO.N,GND*%
X110490000Y-87096250D03*
%TD*%
%TO.P,R8,1*%
%TO.N,21*%
X133350000Y-83996250D03*
%TO.P,R8,2*%
%TO.N,GND*%
X133350000Y-87096250D03*
%TD*%
%TO.P,R14,1*%
%TO.N,41*%
X156210000Y-83996250D03*
%TO.P,R14,2*%
%TO.N,GND*%
X156210000Y-87096250D03*
%TD*%
D11*
%TO.P,J2,1,Pin_1*%
%TO.N,11*%
X106680000Y-77291250D03*
%TO.P,J2,2,Pin_2*%
%TO.N,12*%
X110490000Y-77291250D03*
%TO.P,J2,3,Pin_3*%
%TO.N,13*%
X114300000Y-77291250D03*
%TO.P,J2,4,Pin_4*%
%TO.N,14*%
X118110000Y-77291250D03*
%TO.P,J2,5,Pin_5*%
%TO.N,15*%
X121920000Y-77291250D03*
%TO.P,J2,6,Pin_6*%
%TO.N,16*%
X125730000Y-77291250D03*
%TO.P,J2,7,Pin_7*%
%TO.N,17*%
X129540000Y-77291250D03*
%TO.P,J2,8,Pin_8*%
%TO.N,21*%
X133350000Y-77291250D03*
%TO.P,J2,9,Pin_9*%
%TO.N,22*%
X137160000Y-77291250D03*
%TO.P,J2,10,Pin_10*%
%TO.N,23*%
X140970000Y-77291250D03*
%TO.P,J2,11,Pin_11*%
%TO.N,31*%
X144780000Y-77291250D03*
%TO.P,J2,12,Pin_12*%
%TO.N,32*%
X148590000Y-77291250D03*
%TO.P,J2,13,Pin_13*%
%TO.N,33*%
X152400000Y-77291250D03*
%TO.P,J2,14,Pin_14*%
%TO.N,41*%
X156210000Y-77291250D03*
%TO.P,J2,15,Pin_15*%
%TO.N,42*%
X160020000Y-77291250D03*
%TO.P,J2,16,Pin_16*%
%TO.N,43*%
X163830000Y-77291250D03*
%TO.P,J2,17,Pin_17*%
%TO.N,51*%
X167640000Y-77291250D03*
%TO.P,J2,18,Pin_18*%
%TO.N,52*%
X171450000Y-77291250D03*
%TO.P,J2,19,Pin_19*%
%TO.N,53*%
X175260000Y-77291250D03*
%TD*%
D10*
%TO.P,R12,1*%
%TO.N,32*%
X148590000Y-83996250D03*
%TO.P,R12,2*%
%TO.N,GND*%
X148590000Y-87096250D03*
%TD*%
D12*
%TO.P,J3,1,Pin_1*%
%TO.N,GND*%
X154940000Y-68580000D03*
D13*
%TO.P,J3,2,Pin_2*%
X154940000Y-66040000D03*
%TO.P,J3,3,Pin_3*%
%TO.N,unconnected-(J3-Pin_3-Pad3)*%
X152400000Y-68580000D03*
%TO.P,J3,4,Pin_4*%
%TO.N,unconnected-(J3-Pin_4-Pad4)*%
X152400000Y-66040000D03*
%TO.P,J3,5,Pin_5*%
%TO.N,VCC*%
X149860000Y-68580000D03*
%TO.P,J3,6,Pin_6*%
%TO.N,unconnected-(J3-Pin_6-Pad6)*%
X149860000Y-66040000D03*
%TO.P,J3,7,Pin_7*%
%TO.N,unconnected-(J3-Pin_7-Pad7)*%
X147320000Y-68580000D03*
%TO.P,J3,8,Pin_8*%
%TO.N,unconnected-(J3-Pin_8-Pad8)*%
X147320000Y-66040000D03*
%TO.P,J3,9,Pin_9*%
%TO.N,unconnected-(J3-Pin_9-Pad9)*%
X144780000Y-68580000D03*
%TO.P,J3,10,Pin_10*%
%TO.N,unconnected-(J3-Pin_10-Pad10)*%
X144780000Y-66040000D03*
%TO.P,J3,11,Pin_11*%
%TO.N,unconnected-(J3-Pin_11-Pad11)*%
X142240000Y-68580000D03*
%TO.P,J3,12,Pin_12*%
%TO.N,unconnected-(J3-Pin_12-Pad12)*%
X142240000Y-66040000D03*
%TO.P,J3,13,Pin_13*%
%TO.N,unconnected-(J3-Pin_13-Pad13)*%
X139700000Y-68580000D03*
%TO.P,J3,14,Pin_14*%
%TO.N,unconnected-(J3-Pin_14-Pad14)*%
X139700000Y-66040000D03*
%TO.P,J3,15,Pin_15*%
%TO.N,unconnected-(J3-Pin_15-Pad15)*%
X137160000Y-68580000D03*
%TO.P,J3,16,Pin_16*%
%TO.N,unconnected-(J3-Pin_16-Pad16)*%
X137160000Y-66040000D03*
%TO.P,J3,17,Pin_17*%
%TO.N,unconnected-(J3-Pin_17-Pad17)*%
X134620000Y-68580000D03*
%TO.P,J3,18,Pin_18*%
%TO.N,unconnected-(J3-Pin_18-Pad18)*%
X134620000Y-66040000D03*
%TO.P,J3,19,Pin_19*%
%TO.N,unconnected-(J3-Pin_19-Pad19)*%
X132080000Y-68580000D03*
%TO.P,J3,20,Pin_20*%
%TO.N,unconnected-(J3-Pin_20-Pad20)*%
X132080000Y-66040000D03*
%TO.P,J3,21,Pin_21*%
%TO.N,unconnected-(J3-Pin_21-Pad21)*%
X129540000Y-68580000D03*
%TO.P,J3,22,Pin_22*%
%TO.N,unconnected-(J3-Pin_22-Pad22)*%
X129540000Y-66040000D03*
%TO.P,J3,23,Pin_23*%
%TO.N,unconnected-(J3-Pin_23-Pad23)*%
X127000000Y-68580000D03*
%TO.P,J3,24,Pin_24*%
%TO.N,unconnected-(J3-Pin_24-Pad24)*%
X127000000Y-66040000D03*
%TO.P,J3,25,Pin_25*%
%TO.N,unconnected-(J3-Pin_25-Pad25)*%
X124460000Y-68580000D03*
%TO.P,J3,26,Pin_26*%
%TO.N,unconnected-(J3-Pin_26-Pad26)*%
X124460000Y-66040000D03*
%TO.P,J3,27,Pin_27*%
%TO.N,unconnected-(J3-Pin_27-Pad27)*%
X121920000Y-68580000D03*
%TO.P,J3,28,Pin_28*%
%TO.N,unconnected-(J3-Pin_28-Pad28)*%
X121920000Y-66040000D03*
%TO.P,J3,29,Pin_29*%
%TO.N,unconnected-(J3-Pin_29-Pad29)*%
X119380000Y-68580000D03*
%TO.P,J3,30,Pin_30*%
%TO.N,unconnected-(J3-Pin_30-Pad30)*%
X119380000Y-66040000D03*
%TO.P,J3,31,Pin_31*%
%TO.N,unconnected-(J3-Pin_31-Pad31)*%
X116840000Y-68580000D03*
%TO.P,J3,32,Pin_32*%
%TO.N,unconnected-(J3-Pin_32-Pad32)*%
X116840000Y-66040000D03*
%TO.P,J3,33,Pin_33*%
%TO.N,unconnected-(J3-Pin_33-Pad33)*%
X114300000Y-68580000D03*
%TO.P,J3,34,Pin_34*%
%TO.N,unconnected-(J3-Pin_34-Pad34)*%
X114300000Y-66040000D03*
%TO.P,J3,35,Pin_35*%
%TO.N,unconnected-(J3-Pin_35-Pad35)*%
X111760000Y-68580000D03*
%TO.P,J3,36,Pin_36*%
%TO.N,unconnected-(J3-Pin_36-Pad36)*%
X111760000Y-66040000D03*
%TO.P,J3,37,Pin_37*%
%TO.N,unconnected-(J3-Pin_37-Pad37)*%
X109220000Y-68580000D03*
%TO.P,J3,38,Pin_38*%
%TO.N,unconnected-(J3-Pin_38-Pad38)*%
X109220000Y-66040000D03*
%TO.P,J3,39,Pin_39*%
%TO.N,unconnected-(J3-Pin_39-Pad39)*%
X106680000Y-68580000D03*
%TO.P,J3,40,Pin_40*%
%TO.N,unconnected-(J3-Pin_40-Pad40)*%
X106680000Y-66040000D03*
%TO.P,J3,41,Pin_41*%
%TO.N,unconnected-(J3-Pin_41-Pad41)*%
X104140000Y-68580000D03*
%TO.P,J3,42,Pin_42*%
%TO.N,unconnected-(J3-Pin_42-Pad42)*%
X104140000Y-66040000D03*
%TO.P,J3,43,Pin_43*%
%TO.N,unconnected-(J3-Pin_43-Pad43)*%
X101600000Y-68580000D03*
%TO.P,J3,44,Pin_44*%
%TO.N,unconnected-(J3-Pin_44-Pad44)*%
X101600000Y-66040000D03*
%TO.P,J3,45,Pin_45*%
%TO.N,unconnected-(J3-Pin_45-Pad45)*%
X99060000Y-68580000D03*
%TO.P,J3,46,Pin_46*%
%TO.N,unconnected-(J3-Pin_46-Pad46)*%
X99060000Y-66040000D03*
%TO.P,J3,47,Pin_47*%
%TO.N,unconnected-(J3-Pin_47-Pad47)*%
X96520000Y-68580000D03*
%TO.P,J3,48,Pin_48*%
%TO.N,unconnected-(J3-Pin_48-Pad48)*%
X96520000Y-66040000D03*
%TO.P,J3,49,Pin_49*%
%TO.N,unconnected-(J3-Pin_49-Pad49)*%
X93980000Y-68580000D03*
%TO.P,J3,50,Pin_50*%
%TO.N,unconnected-(J3-Pin_50-Pad50)*%
X93980000Y-66040000D03*
%TD*%
D11*
%TO.P,M3,1,VEE*%
%TO.N,unconnected-(M3-VEE-Pad1)*%
X96520000Y-98881250D03*
%TO.P,M3,2,VCC*%
%TO.N,unconnected-(M3-VCC-Pad2)*%
X99060000Y-98881250D03*
%TO.P,M3,3,GND*%
%TO.N,unconnected-(M3-GND-Pad3)*%
X101600000Y-98881250D03*
%TO.P,M3,4,Y0*%
%TO.N,unconnected-(M3-Y0-Pad4)*%
X104140000Y-98881250D03*
%TO.P,M3,5,Y1*%
%TO.N,11*%
X106680000Y-98881250D03*
%TO.P,M3,6,Y2*%
%TO.N,12*%
X109220000Y-98881250D03*
%TO.P,M3,7,Y3*%
%TO.N,13*%
X111760000Y-98881250D03*
%TO.P,M3,8,Y4*%
%TO.N,14*%
X114300000Y-98881250D03*
%TO.P,M3,9,Y5*%
%TO.N,15*%
X116840000Y-98881250D03*
%TO.P,M3,10,Y6*%
%TO.N,16*%
X119380000Y-98881250D03*
%TO.P,M3,11,Y7*%
%TO.N,17*%
X121920000Y-98881250D03*
%TO.P,M3,12,VEE*%
%TO.N,unconnected-(M3-VEE-Pad12)*%
X99060000Y-109041250D03*
%TO.P,M3,13,VCC*%
%TO.N,VCC*%
X101600000Y-109041250D03*
%TO.P,M3,14,GND*%
%TO.N,GND*%
X104140000Y-109041250D03*
%TO.P,M3,15,Z*%
%TO.N,PB0*%
X106680000Y-109041250D03*
%TO.P,M3,16,S0*%
%TO.N,PE13*%
X109220000Y-109041250D03*
%TO.P,M3,17,S1*%
%TO.N,PE14*%
X111760000Y-109041250D03*
%TO.P,M3,18,S2*%
%TO.N,PE15*%
X114300000Y-109041250D03*
%TO.P,M3,19,E*%
%TO.N,unconnected-(M3-E-Pad19)*%
X116840000Y-109041250D03*
%TD*%
D10*
%TO.P,R9,1*%
%TO.N,22*%
X137160000Y-83996250D03*
%TO.P,R9,2*%
%TO.N,GND*%
X137160000Y-87096250D03*
%TD*%
%TO.P,R3,1*%
%TO.N,13*%
X114300000Y-83996250D03*
%TO.P,R3,2*%
%TO.N,GND*%
X114300000Y-87096250D03*
%TD*%
D14*
%TO.N,VCC*%
X93980000Y-101600000D03*
%TO.N,GND*%
X129540000Y-88721250D03*
X160020000Y-88721250D03*
X163830000Y-88721250D03*
X156210000Y-88721250D03*
X133350000Y-88721250D03*
X175260000Y-88721250D03*
X114300000Y-88721250D03*
X121920000Y-88721250D03*
X167640000Y-88721250D03*
X144780000Y-88721250D03*
X140970000Y-88721250D03*
X125730000Y-88721250D03*
X148590000Y-88721250D03*
X137160000Y-88721250D03*
X171450000Y-88721250D03*
X118110000Y-88721250D03*
X152400000Y-88721250D03*
X110490000Y-88721250D03*
X106680000Y-88721250D03*
%TO.N,11*%
X107950000Y-81736250D03*
%TO.N,12*%
X111760000Y-81736250D03*
%TO.N,13*%
X115570000Y-81736250D03*
%TO.N,14*%
X119380000Y-81736250D03*
%TO.N,15*%
X123190000Y-81736250D03*
%TO.N,16*%
X127000000Y-81736250D03*
%TO.N,17*%
X130810000Y-81736250D03*
%TO.N,21*%
X134620000Y-81736250D03*
%TO.N,22*%
X138430000Y-81736250D03*
%TO.N,23*%
X142240000Y-81736250D03*
%TO.N,31*%
X146050000Y-81736250D03*
%TO.N,32*%
X149860000Y-81736250D03*
%TO.N,33*%
X153670000Y-81736250D03*
%TO.N,41*%
X157480000Y-81736250D03*
%TO.N,42*%
X161290000Y-81736250D03*
%TO.N,43*%
X165100000Y-81736250D03*
%TO.N,51*%
X168910000Y-81736250D03*
%TO.N,52*%
X172720000Y-81736250D03*
%TO.N,53*%
X176530000Y-81736250D03*
%TO.N,PE7*%
X167640000Y-118110000D03*
%TO.N,PE10*%
X137160000Y-113030000D03*
%TO.N,PE14*%
X116840000Y-113030000D03*
%TD*%
D15*
%TO.N,VCC*%
X151130000Y-74751250D02*
X173990000Y-74751250D01*
X149860000Y-68580000D02*
X149860000Y-72211250D01*
X105410000Y-74751250D02*
X93980000Y-86181250D01*
X93980000Y-101600000D02*
X93980000Y-86181250D01*
X149860000Y-72211250D02*
X147320000Y-74751250D01*
X151130000Y-74751250D02*
X105410000Y-74751250D01*
%TO.N,GND*%
X163830000Y-88721250D02*
X163830000Y-87096250D01*
X133350000Y-88721250D02*
X133350000Y-87096250D01*
X137160000Y-88721250D02*
X137160000Y-87096250D01*
X167640000Y-88721250D02*
X167640000Y-87096250D01*
X148590000Y-88721250D02*
X148590000Y-87096250D01*
X125730000Y-88721250D02*
X125730000Y-87096250D01*
X152400000Y-88721250D02*
X152400000Y-87096250D01*
X114300000Y-88721250D02*
X114300000Y-87096250D01*
X140970000Y-88721250D02*
X140970000Y-87096250D01*
X175260000Y-88721250D02*
X175260000Y-87096250D01*
X106680000Y-88721250D02*
X106680000Y-87096250D01*
X121920000Y-88721250D02*
X121920000Y-87096250D01*
X171450000Y-88721250D02*
X171450000Y-87096250D01*
X129540000Y-88721250D02*
X129540000Y-87096250D01*
X118110000Y-88721250D02*
X118110000Y-87096250D01*
X156210000Y-88721250D02*
X156210000Y-87096250D01*
X110490000Y-88721250D02*
X110490000Y-87096250D01*
X144780000Y-88721250D02*
X144780000Y-87096250D01*
X160020000Y-88721250D02*
X160020000Y-87096250D01*
%TO.N,11*%
X106680000Y-80466250D02*
X107950000Y-81736250D01*
X106680000Y-80466250D02*
X106680000Y-83996250D01*
X106680000Y-77291250D02*
X106680000Y-80466250D01*
%TO.N,12*%
X110490000Y-80466250D02*
X111760000Y-81736250D01*
X110490000Y-80466250D02*
X110490000Y-83996250D01*
X110490000Y-77291250D02*
X110490000Y-80466250D01*
%TO.N,13*%
X114300000Y-77291250D02*
X114300000Y-80466250D01*
X114300000Y-80466250D02*
X115570000Y-81736250D01*
X114300000Y-80466250D02*
X114300000Y-83996250D01*
%TO.N,14*%
X118110000Y-80466250D02*
X118110000Y-83996250D01*
X118110000Y-77291250D02*
X118110000Y-80466250D01*
X118110000Y-80466250D02*
X119380000Y-81736250D01*
%TO.N,15*%
X121920000Y-80466250D02*
X123190000Y-81736250D01*
X121920000Y-80466250D02*
X121920000Y-83996250D01*
X121920000Y-77291250D02*
X121920000Y-80466250D01*
%TO.N,16*%
X125730000Y-80466250D02*
X125730000Y-83996250D01*
X125730000Y-80466250D02*
X127000000Y-81736250D01*
X125730000Y-77291250D02*
X125730000Y-80466250D01*
%TO.N,17*%
X129540000Y-77291250D02*
X129540000Y-80466250D01*
X129540000Y-80466250D02*
X129540000Y-83996250D01*
X129540000Y-80466250D02*
X130810000Y-81736250D01*
%TO.N,21*%
X133350000Y-77291250D02*
X133350000Y-80466250D01*
X133350000Y-80466250D02*
X134620000Y-81736250D01*
X133350000Y-80466250D02*
X133350000Y-83996250D01*
%TO.N,22*%
X137160000Y-80466250D02*
X138430000Y-81736250D01*
X137160000Y-77291250D02*
X137160000Y-80466250D01*
X137160000Y-80466250D02*
X137160000Y-83996250D01*
%TO.N,23*%
X140970000Y-80466250D02*
X140970000Y-83996250D01*
X140970000Y-77291250D02*
X140970000Y-80466250D01*
X140970000Y-80466250D02*
X142240000Y-81736250D01*
%TO.N,31*%
X144780000Y-80466250D02*
X146050000Y-81736250D01*
X144780000Y-80466250D02*
X144780000Y-83996250D01*
X144780000Y-77291250D02*
X144780000Y-80466250D01*
%TO.N,32*%
X148590000Y-80466250D02*
X149860000Y-81736250D01*
X148590000Y-77291250D02*
X148590000Y-80466250D01*
X148590000Y-80466250D02*
X148590000Y-83996250D01*
%TO.N,33*%
X152400000Y-80466250D02*
X153670000Y-81736250D01*
X152400000Y-80466250D02*
X152400000Y-83996250D01*
X152400000Y-77291250D02*
X152400000Y-80466250D01*
%TO.N,41*%
X156210000Y-80466250D02*
X157480000Y-81736250D01*
X156210000Y-80466250D02*
X156210000Y-83996250D01*
X156210000Y-77291250D02*
X156210000Y-80466250D01*
%TO.N,42*%
X160020000Y-77291250D02*
X160020000Y-80466250D01*
X160020000Y-80466250D02*
X161290000Y-81736250D01*
X160020000Y-80466250D02*
X160020000Y-83996250D01*
%TO.N,43*%
X163830000Y-80466250D02*
X165100000Y-81736250D01*
X163830000Y-80466250D02*
X163830000Y-83996250D01*
X163830000Y-77291250D02*
X163830000Y-80466250D01*
%TO.N,51*%
X167640000Y-80466250D02*
X167640000Y-83996250D01*
X167640000Y-80466250D02*
X168910000Y-81736250D01*
X167640000Y-77291250D02*
X167640000Y-80466250D01*
%TO.N,52*%
X171450000Y-80466250D02*
X171450000Y-83996250D01*
X171450000Y-80466250D02*
X172720000Y-81736250D01*
X171450000Y-77291250D02*
X171450000Y-80466250D01*
%TO.N,53*%
X175260000Y-77291250D02*
X175260000Y-80466250D01*
X175260000Y-80466250D02*
X176530000Y-81736250D01*
X175260000Y-80466250D02*
X175260000Y-83996250D01*
D16*
%TO.N,PE7*%
X124460000Y-119380000D02*
X124460000Y-120650000D01*
X125730000Y-121920000D02*
X163830000Y-121920000D01*
X124460000Y-120650000D02*
X125730000Y-121920000D01*
X163830000Y-121920000D02*
X167640000Y-118110000D01*
%TO.N,PE8*%
X125730000Y-114300000D02*
X167640000Y-114300000D01*
X124460000Y-115570000D02*
X125730000Y-114300000D01*
X124460000Y-116840000D02*
X124460000Y-115570000D01*
X167640000Y-114300000D02*
X170180000Y-111760000D01*
X170180000Y-111760000D02*
X170180000Y-109041250D01*
%TO.N,PE9*%
X121920000Y-119380000D02*
X121920000Y-120650000D01*
X165100000Y-123190000D02*
X172720000Y-115570000D01*
X121920000Y-120650000D02*
X124460000Y-123190000D01*
X124460000Y-123190000D02*
X165100000Y-123190000D01*
X172720000Y-115570000D02*
X172720000Y-109041250D01*
%TO.N,PE10*%
X121920000Y-116840000D02*
X121920000Y-115570000D01*
X124460000Y-113030000D02*
X137160000Y-113030000D01*
X121920000Y-115570000D02*
X124460000Y-113030000D01*
%TO.N,PE12*%
X123190000Y-111760000D02*
X142240000Y-111760000D01*
X143510000Y-110490000D02*
X143510000Y-109041250D01*
X142240000Y-111760000D02*
X143510000Y-110490000D01*
X119380000Y-115570000D02*
X123190000Y-111760000D01*
X119380000Y-116840000D02*
X119380000Y-115570000D01*
%TO.N,PE13*%
X115570000Y-121920000D02*
X113030000Y-121920000D01*
X113030000Y-121920000D02*
X109220000Y-118110000D01*
X116840000Y-120650000D02*
X115570000Y-121920000D01*
X109220000Y-118110000D02*
X109220000Y-109041250D01*
X116840000Y-119380000D02*
X116840000Y-120650000D01*
%TO.N,PE14*%
X116840000Y-116840000D02*
X116840000Y-113030000D01*
%TO.N,PE15*%
X111760000Y-116840000D02*
X114300000Y-114300000D01*
X111760000Y-118110000D02*
X111760000Y-116840000D01*
X113030000Y-119380000D02*
X111760000Y-118110000D01*
X114300000Y-119380000D02*
X113030000Y-119380000D01*
X114300000Y-114300000D02*
X114300000Y-109041250D01*
%TD*%
M02*
