%TF.GenerationSoftware,KiCad,Pcbnew,7.0.9*%
%TF.CreationDate,2024-01-15T11:44:11+01:00*%
%TF.ProjectId,pltka_inz,706c746b-615f-4696-9e7a-2e6b69636164,rev?*%
%TF.SameCoordinates,Original*%
%TF.FileFunction,Soldermask,Top*%
%TF.FilePolarity,Negative*%
%FSLAX46Y46*%
G04 Gerber Fmt 4.6, Leading zero omitted, Abs format (unit mm)*
G04 Created by KiCad (PCBNEW 7.0.9) date 2024-01-15 11:44:11*
%MOMM*%
%LPD*%
G01*
G04 APERTURE LIST*
G04 Aperture macros list*
%AMRoundRect*
0 Rectangle with rounded corners*
0 $1 Rounding radius*
0 $2 $3 $4 $5 $6 $7 $8 $9 X,Y pos of 4 corners*
0 Add a 4 corners polygon primitive as box body*
4,1,4,$2,$3,$4,$5,$6,$7,$8,$9,$2,$3,0*
0 Add four circle primitives for the rounded corners*
1,1,$1+$1,$2,$3*
1,1,$1+$1,$4,$5*
1,1,$1+$1,$6,$7*
1,1,$1+$1,$8,$9*
0 Add four rect primitives between the rounded corners*
20,1,$1+$1,$2,$3,$4,$5,0*
20,1,$1+$1,$4,$5,$6,$7,0*
20,1,$1+$1,$6,$7,$8,$9,0*
20,1,$1+$1,$8,$9,$2,$3,0*%
G04 Aperture macros list end*
%ADD10RoundRect,0.250000X-0.625000X0.400000X-0.625000X-0.400000X0.625000X-0.400000X0.625000X0.400000X0*%
%ADD11C,1.879600*%
%ADD12R,1.700000X1.700000*%
%ADD13O,1.700000X1.700000*%
G04 APERTURE END LIST*
D10*
%TO.C,R1*%
X106680000Y-83996250D03*
X106680000Y-87096250D03*
%TD*%
D11*
%TO.C,M2*%
X125730000Y-98881250D03*
X128270000Y-98881250D03*
X130810000Y-98881250D03*
X133350000Y-98881250D03*
X135890000Y-98881250D03*
X138430000Y-98881250D03*
X140970000Y-98881250D03*
X143510000Y-98881250D03*
X146050000Y-98881250D03*
X148590000Y-98881250D03*
X151130000Y-98881250D03*
X128270000Y-109041250D03*
X130810000Y-109041250D03*
X133350000Y-109041250D03*
X135890000Y-109041250D03*
X138430000Y-109041250D03*
X140970000Y-109041250D03*
X143510000Y-109041250D03*
X146050000Y-109041250D03*
%TD*%
D10*
%TO.C,R16*%
X163830000Y-83996250D03*
X163830000Y-87096250D03*
%TD*%
%TO.C,R15*%
X160020000Y-83996250D03*
X160020000Y-87096250D03*
%TD*%
%TO.C,R13*%
X152400000Y-83996250D03*
X152400000Y-87096250D03*
%TD*%
%TO.C,R18*%
X171450000Y-83996250D03*
X171450000Y-87096250D03*
%TD*%
D11*
%TO.C,M1*%
X154940000Y-98881250D03*
X157480000Y-98881250D03*
X160020000Y-98881250D03*
X162560000Y-98881250D03*
X165100000Y-98881250D03*
X167640000Y-98881250D03*
X170180000Y-98881250D03*
X172720000Y-98881250D03*
X175260000Y-98881250D03*
X177800000Y-98881250D03*
X180340000Y-98881250D03*
X157480000Y-109041250D03*
X160020000Y-109041250D03*
X162560000Y-109041250D03*
X165100000Y-109041250D03*
X167640000Y-109041250D03*
X170180000Y-109041250D03*
X172720000Y-109041250D03*
X175260000Y-109041250D03*
%TD*%
D10*
%TO.C,R5*%
X121920000Y-83996250D03*
X121920000Y-87096250D03*
%TD*%
%TO.C,R10*%
X140970000Y-83996250D03*
X140970000Y-87096250D03*
%TD*%
%TO.C,R4*%
X118110000Y-83996250D03*
X118110000Y-87096250D03*
%TD*%
%TO.C,R6*%
X125730000Y-83996250D03*
X125730000Y-87096250D03*
%TD*%
%TO.C,R17*%
X167640000Y-83996250D03*
X167640000Y-87096250D03*
%TD*%
%TO.C,R7*%
X129540000Y-83996250D03*
X129540000Y-87096250D03*
%TD*%
%TO.C,R19*%
X175260000Y-83996250D03*
X175260000Y-87096250D03*
%TD*%
%TO.C,R11*%
X144780000Y-83996250D03*
X144780000Y-87096250D03*
%TD*%
D11*
%TO.C,J1*%
X105410000Y-74751250D03*
X109220000Y-74751250D03*
X113030000Y-74751250D03*
X116840000Y-74751250D03*
X120650000Y-74751250D03*
X124460000Y-74751250D03*
X128270000Y-74751250D03*
X132080000Y-74751250D03*
X135890000Y-74751250D03*
X139700000Y-74751250D03*
X143510000Y-74751250D03*
X147320000Y-74751250D03*
X151130000Y-74751250D03*
X154940000Y-74751250D03*
X158750000Y-74751250D03*
X162560000Y-74751250D03*
X166370000Y-74751250D03*
X170180000Y-74751250D03*
X173990000Y-74751250D03*
%TD*%
D12*
%TO.C,J4*%
X154940000Y-119380000D03*
D13*
X154940000Y-116840000D03*
X152400000Y-119380000D03*
X152400000Y-116840000D03*
X149860000Y-119380000D03*
X149860000Y-116840000D03*
X147320000Y-119380000D03*
X144780000Y-119380000D03*
X142240000Y-119380000D03*
X139700000Y-119380000D03*
X139700000Y-116840000D03*
X129540000Y-119380000D03*
X129540000Y-116840000D03*
X127000000Y-119380000D03*
X127000000Y-116840000D03*
X124460000Y-119380000D03*
X124460000Y-116840000D03*
X121920000Y-119380000D03*
X121920000Y-116840000D03*
X119380000Y-119380000D03*
X119380000Y-116840000D03*
X116840000Y-119380000D03*
X116840000Y-116840000D03*
X114300000Y-119380000D03*
X114300000Y-116840000D03*
X99060000Y-119380000D03*
X99060000Y-116840000D03*
X96520000Y-119380000D03*
X96520000Y-116840000D03*
X93980000Y-119380000D03*
X93980000Y-116840000D03*
%TD*%
D10*
%TO.C,R2*%
X110490000Y-83996250D03*
X110490000Y-87096250D03*
%TD*%
%TO.C,R8*%
X133350000Y-83996250D03*
X133350000Y-87096250D03*
%TD*%
%TO.C,R14*%
X156210000Y-83996250D03*
X156210000Y-87096250D03*
%TD*%
D11*
%TO.C,J2*%
X106680000Y-77291250D03*
X110490000Y-77291250D03*
X114300000Y-77291250D03*
X118110000Y-77291250D03*
X121920000Y-77291250D03*
X125730000Y-77291250D03*
X129540000Y-77291250D03*
X133350000Y-77291250D03*
X137160000Y-77291250D03*
X140970000Y-77291250D03*
X144780000Y-77291250D03*
X148590000Y-77291250D03*
X152400000Y-77291250D03*
X156210000Y-77291250D03*
X160020000Y-77291250D03*
X163830000Y-77291250D03*
X167640000Y-77291250D03*
X171450000Y-77291250D03*
X175260000Y-77291250D03*
%TD*%
D10*
%TO.C,R12*%
X148590000Y-83996250D03*
X148590000Y-87096250D03*
%TD*%
D12*
%TO.C,J3*%
X154940000Y-68580000D03*
D13*
X154940000Y-66040000D03*
X152400000Y-68580000D03*
X152400000Y-66040000D03*
X149860000Y-68580000D03*
X149860000Y-66040000D03*
X147320000Y-68580000D03*
X147320000Y-66040000D03*
X144780000Y-68580000D03*
X144780000Y-66040000D03*
X142240000Y-68580000D03*
X142240000Y-66040000D03*
X139700000Y-68580000D03*
X139700000Y-66040000D03*
X137160000Y-68580000D03*
X137160000Y-66040000D03*
X134620000Y-68580000D03*
X134620000Y-66040000D03*
X132080000Y-68580000D03*
X132080000Y-66040000D03*
X129540000Y-68580000D03*
X129540000Y-66040000D03*
X127000000Y-68580000D03*
X127000000Y-66040000D03*
X124460000Y-68580000D03*
X124460000Y-66040000D03*
X121920000Y-68580000D03*
X121920000Y-66040000D03*
X119380000Y-68580000D03*
X119380000Y-66040000D03*
X116840000Y-68580000D03*
X116840000Y-66040000D03*
X114300000Y-68580000D03*
X114300000Y-66040000D03*
X111760000Y-68580000D03*
X111760000Y-66040000D03*
X109220000Y-68580000D03*
X109220000Y-66040000D03*
X106680000Y-68580000D03*
X106680000Y-66040000D03*
X104140000Y-68580000D03*
X104140000Y-66040000D03*
X101600000Y-68580000D03*
X101600000Y-66040000D03*
X99060000Y-68580000D03*
X99060000Y-66040000D03*
X96520000Y-68580000D03*
X96520000Y-66040000D03*
X93980000Y-68580000D03*
X93980000Y-66040000D03*
%TD*%
D11*
%TO.C,M3*%
X96520000Y-98881250D03*
X99060000Y-98881250D03*
X101600000Y-98881250D03*
X104140000Y-98881250D03*
X106680000Y-98881250D03*
X109220000Y-98881250D03*
X111760000Y-98881250D03*
X114300000Y-98881250D03*
X116840000Y-98881250D03*
X119380000Y-98881250D03*
X121920000Y-98881250D03*
X99060000Y-109041250D03*
X101600000Y-109041250D03*
X104140000Y-109041250D03*
X106680000Y-109041250D03*
X109220000Y-109041250D03*
X111760000Y-109041250D03*
X114300000Y-109041250D03*
X116840000Y-109041250D03*
%TD*%
D10*
%TO.C,R9*%
X137160000Y-83996250D03*
X137160000Y-87096250D03*
%TD*%
%TO.C,R3*%
X114300000Y-83996250D03*
X114300000Y-87096250D03*
%TD*%
M02*
